<svg xmlns="http://www.w3.org/2000/svg" xmlns:xlink="http://www.w3.org/1999/xlink" width="940" height="271" contentScriptType="application/ecmascript" contentStyleType="text/css" style="width:940px;height:271px;background:#fff" preserveAspectRatio="none" version="1.1" viewBox="0 0 940 271" zoomAndPan="magnify"><defs><filter id="fgmyzzlf8phsy" width="300%" height="300%" x="-1" y="-1"><feGaussianBlur result="blurOut" stdDeviation="2"/><feColorMatrix in="blurOut" result="blurOut2" type="matrix" values="0 0 0 0 0 0 0 0 0 0 0 0 0 0 0 0 0 0 .4 0"/><feOffset dx="4" dy="4" in="blurOut2" result="blurOut3"/><feBlend in="SourceGraphic" in2="blurOut3" mode="normal"/></filter></defs><g><rect style="stroke:#a80036;stroke-width:1" width="147" height="259.84" x="352.5" y="6" fill="#DDD"/><text x="402.5" y="18.568" fill="#000" font-family="sans-serif" font-size="13" font-weight="bold" lengthAdjust="spacing" textLength="47">Engine</text><rect style="stroke:#a80036;stroke-width:1" width="10" height="117.242" x="421" y="92.109" fill="#FFF" filter="url(#fgmyzzlf8phsy)"/><rect style="stroke:#a80036;stroke-width:1" width="10" height="58.621" x="854" y="121.42" fill="#FFF" filter="url(#fgmyzzlf8phsy)"/><line style="stroke:#a80036;stroke-width:1;stroke-dasharray:5,5" x1="63" x2="63" y1="60.799" y2="227.352"/><line style="stroke:#a80036;stroke-width:1;stroke-dasharray:5,5" x1="425.5" x2="425.5" y1="60.799" y2="227.352"/><line style="stroke:#a80036;stroke-width:1;stroke-dasharray:5,5" x1="859" x2="859" y1="60.799" y2="227.352"/><rect style="stroke:#a80036;stroke-width:1.5" width="112" height="30.488" x="5" y="25.311" fill="#FEFECE" filter="url(#fgmyzzlf8phsy)"/><text x="12" y="45.846" fill="#000" font-family="sans-serif" font-size="14" lengthAdjust="spacing" textLength="98">Language SDK</text><rect style="stroke:#a80036;stroke-width:1.5" width="112" height="30.488" x="5" y="226.352" fill="#FEFECE" filter="url(#fgmyzzlf8phsy)"/><text x="12" y="246.887" fill="#000" font-family="sans-serif" font-size="14" lengthAdjust="spacing" textLength="98">Language SDK</text><rect style="stroke:#a80036;stroke-width:1.5" width="135" height="30.488" x="356.5" y="25.311" fill="#FEFECE" filter="url(#fgmyzzlf8phsy)"/><text x="363.5" y="45.846" fill="#000" font-family="sans-serif" font-size="14" lengthAdjust="spacing" textLength="121">Resource Monitor</text><rect style="stroke:#a80036;stroke-width:1.5" width="135" height="30.488" x="356.5" y="226.352" fill="#FEFECE" filter="url(#fgmyzzlf8phsy)"/><text x="363.5" y="246.887" fill="#000" font-family="sans-serif" font-size="14" lengthAdjust="spacing" textLength="121">Resource Monitor</text><rect style="stroke:#a80036;stroke-width:1.5" width="138" height="30.488" x="788" y="25.311" fill="#FEFECE" filter="url(#fgmyzzlf8phsy)"/><text x="795" y="45.846" fill="#000" font-family="sans-serif" font-size="14" lengthAdjust="spacing" textLength="124">Resource Provider</text><rect style="stroke:#a80036;stroke-width:1.5" width="138" height="30.488" x="788" y="226.352" fill="#FEFECE" filter="url(#fgmyzzlf8phsy)"/><text x="795" y="246.887" fill="#000" font-family="sans-serif" font-size="14" lengthAdjust="spacing" textLength="124">Resource Provider</text><rect style="stroke:#a80036;stroke-width:1" width="10" height="117.242" x="421" y="92.109" fill="#FFF" filter="url(#fgmyzzlf8phsy)"/><rect style="stroke:#a80036;stroke-width:1" width="10" height="58.621" x="854" y="121.42" fill="#FFF" filter="url(#fgmyzzlf8phsy)"/><polygon fill="#A80036" points="409 88.109 419 92.109 409 96.109 413 92.109" style="stroke:#a80036;stroke-width:1"/><line style="stroke:#a80036;stroke-width:1" x1="63" x2="415" y1="92.109" y2="92.109"/><text x="70" y="87.367" fill="#000" font-family="sans-serif" font-size="13" lengthAdjust="spacing" textLength="339">RegisterResourceRequest(type, name, inputs, options)</text><polygon fill="#A80036" points="842 117.42 852 121.42 842 125.42 846 121.42" style="stroke:#a80036;stroke-width:1"/><line style="stroke:#a80036;stroke-width:1" x1="431" x2="848" y1="121.42" y2="121.42"/><text x="438" y="116.678" fill="#000" font-family="sans-serif" font-size="13" lengthAdjust="spacing" textLength="404">ConstructRequest(monitor address, type, name, inputs, options)</text><polygon fill="#A80036" points="442 146.731 432 150.731 442 154.731 438 150.731" style="stroke:#a80036;stroke-width:1"/><polygon fill="#A80036" points="842 146.731 852 150.731 842 154.731 846 150.731" style="stroke:#a80036;stroke-width:1"/><line style="stroke:#a80036;stroke-width:1;stroke-dasharray:2,2" x1="436" x2="848" y1="150.731" y2="150.731"/><text x="448" y="145.988" fill="#000" font-family="sans-serif" font-size="13" lengthAdjust="spacing" textLength="322">Component resource + child resource registrations</text><polygon fill="#A80036" points="442 176.041 432 180.041 442 184.041 438 180.041" style="stroke:#a80036;stroke-width:1"/><line style="stroke:#a80036;stroke-width:1" x1="436" x2="858" y1="180.041" y2="180.041"/><text x="448" y="175.299" fill="#000" font-family="sans-serif" font-size="13" lengthAdjust="spacing" textLength="179">ConstructResponse(outputs)</text><polygon fill="#A80036" points="74 205.352 64 209.352 74 213.352 70 209.352" style="stroke:#a80036;stroke-width:1"/><line style="stroke:#a80036;stroke-width:1" x1="68" x2="425" y1="209.352" y2="209.352"/><text x="80" y="204.609" fill="#000" font-family="sans-serif" font-size="13" lengthAdjust="spacing" textLength="287">RegisterResourceResponse(urn, ID, new state)</text></g></svg>