<svg xmlns="http://www.w3.org/2000/svg" xmlns:xlink="http://www.w3.org/1999/xlink" width="1267" height="414" contentScriptType="application/ecmascript" contentStyleType="text/css" style="width:1267px;height:414px;background:#fff" preserveAspectRatio="none" version="1.1" viewBox="0 0 1267 414" zoomAndPan="magnify"><defs><filter id="f1t98qpe1nkdme" width="300%" height="300%" x="-1" y="-1"><feGaussianBlur result="blurOut" stdDeviation="2"/><feColorMatrix in="blurOut" result="blurOut2" type="matrix" values="0 0 0 0 0 0 0 0 0 0 0 0 0 0 0 0 0 0 .4 0"/><feOffset dx="4" dy="4" in="blurOut2" result="blurOut3"/><feBlend in="SourceGraphic" in2="blurOut3" mode="normal"/></filter></defs><g><rect style="stroke:#a80036;stroke-width:1" width="689" height="402.393" x="352.5" y="6" fill="#DDD"/><text x="673.5" y="18.568" fill="#000" font-family="sans-serif" font-size="13" font-weight="bold" lengthAdjust="spacing" textLength="47">Engine</text><rect style="stroke:#a80036;stroke-width:1" width="10" height="259.795" x="421" y="92.109" fill="#FFF" filter="url(#f1t98qpe1nkdme)"/><rect style="stroke:#a80036;stroke-width:1" width="10" height="100.587" x="773" y="121.42" fill="#FFF" filter="url(#f1t98qpe1nkdme)"/><rect style="stroke:#a80036;stroke-width:1" width="10" height="100.587" x="976" y="222.007" fill="#FFF" filter="url(#f1t98qpe1nkdme)"/><rect style="stroke:#a80036;stroke-width:1" width="10" height="29.311" x="1181" y="150.731" fill="#FFF" filter="url(#f1t98qpe1nkdme)"/><rect style="stroke:#a80036;stroke-width:1" width="10" height="29.311" x="1181" y="263.973" fill="#FFF" filter="url(#f1t98qpe1nkdme)"/><line style="stroke:#a80036;stroke-width:1;stroke-dasharray:5,5" x1="63" x2="63" y1="60.799" y2="369.904"/><line style="stroke:#a80036;stroke-width:1;stroke-dasharray:5,5" x1="425.5" x2="425.5" y1="60.799" y2="369.904"/><line style="stroke:#a80036;stroke-width:1;stroke-dasharray:5,5" x1="777.5" x2="777.5" y1="60.799" y2="369.904"/><line style="stroke:#a80036;stroke-width:1;stroke-dasharray:5,5" x1="980.5" x2="980.5" y1="60.799" y2="369.904"/><line style="stroke:#a80036;stroke-width:1;stroke-dasharray:5,5" x1="1186" x2="1186" y1="60.799" y2="369.904"/><rect style="stroke:#a80036;stroke-width:1.5" width="112" height="30.488" x="5" y="25.311" fill="#FEFECE" filter="url(#f1t98qpe1nkdme)"/><text x="12" y="45.846" fill="#000" font-family="sans-serif" font-size="14" lengthAdjust="spacing" textLength="98">Language SDK</text><rect style="stroke:#a80036;stroke-width:1.5" width="112" height="30.488" x="5" y="368.904" fill="#FEFECE" filter="url(#f1t98qpe1nkdme)"/><text x="12" y="389.44" fill="#000" font-family="sans-serif" font-size="14" lengthAdjust="spacing" textLength="98">Language SDK</text><rect style="stroke:#a80036;stroke-width:1.5" width="135" height="30.488" x="356.5" y="25.311" fill="#FEFECE" filter="url(#f1t98qpe1nkdme)"/><text x="363.5" y="45.846" fill="#000" font-family="sans-serif" font-size="14" lengthAdjust="spacing" textLength="121">Resource Monitor</text><rect style="stroke:#a80036;stroke-width:1.5" width="135" height="30.488" x="356.5" y="368.904" fill="#FEFECE" filter="url(#f1t98qpe1nkdme)"/><text x="363.5" y="389.44" fill="#000" font-family="sans-serif" font-size="14" lengthAdjust="spacing" textLength="121">Resource Monitor</text><rect style="stroke:#a80036;stroke-width:1.5" width="117" height="30.488" x="717.5" y="25.311" fill="#FEFECE" filter="url(#f1t98qpe1nkdme)"/><text x="724.5" y="45.846" fill="#000" font-family="sans-serif" font-size="14" lengthAdjust="spacing" textLength="103">Step Generator</text><rect style="stroke:#a80036;stroke-width:1.5" width="117" height="30.488" x="717.5" y="368.904" fill="#FEFECE" filter="url(#f1t98qpe1nkdme)"/><text x="724.5" y="389.44" fill="#000" font-family="sans-serif" font-size="14" lengthAdjust="spacing" textLength="103">Step Generator</text><rect style="stroke:#a80036;stroke-width:1.5" width="109" height="30.488" x="924.5" y="25.311" fill="#FEFECE" filter="url(#f1t98qpe1nkdme)"/><text x="931.5" y="45.846" fill="#000" font-family="sans-serif" font-size="14" lengthAdjust="spacing" textLength="95">Step Executor</text><rect style="stroke:#a80036;stroke-width:1.5" width="109" height="30.488" x="924.5" y="368.904" fill="#FEFECE" filter="url(#f1t98qpe1nkdme)"/><text x="931.5" y="389.44" fill="#000" font-family="sans-serif" font-size="14" lengthAdjust="spacing" textLength="95">Step Executor</text><rect style="stroke:#a80036;stroke-width:1.5" width="138" height="30.488" x="1115" y="25.311" fill="#FEFECE" filter="url(#f1t98qpe1nkdme)"/><text x="1122" y="45.846" fill="#000" font-family="sans-serif" font-size="14" lengthAdjust="spacing" textLength="124">Resource Provider</text><rect style="stroke:#a80036;stroke-width:1.5" width="138" height="30.488" x="1115" y="368.904" fill="#FEFECE" filter="url(#f1t98qpe1nkdme)"/><text x="1122" y="389.44" fill="#000" font-family="sans-serif" font-size="14" lengthAdjust="spacing" textLength="124">Resource Provider</text><rect style="stroke:#a80036;stroke-width:1" width="10" height="259.795" x="421" y="92.109" fill="#FFF" filter="url(#f1t98qpe1nkdme)"/><rect style="stroke:#a80036;stroke-width:1" width="10" height="100.587" x="773" y="121.42" fill="#FFF" filter="url(#f1t98qpe1nkdme)"/><rect style="stroke:#a80036;stroke-width:1" width="10" height="100.587" x="976" y="222.007" fill="#FFF" filter="url(#f1t98qpe1nkdme)"/><rect style="stroke:#a80036;stroke-width:1" width="10" height="29.311" x="1181" y="150.731" fill="#FFF" filter="url(#f1t98qpe1nkdme)"/><rect style="stroke:#a80036;stroke-width:1" width="10" height="29.311" x="1181" y="263.973" fill="#FFF" filter="url(#f1t98qpe1nkdme)"/><polygon fill="#A80036" points="409 88.109 419 92.109 409 96.109 413 92.109" style="stroke:#a80036;stroke-width:1"/><line style="stroke:#a80036;stroke-width:1" x1="63" x2="415" y1="92.109" y2="92.109"/><text x="70" y="87.367" fill="#000" font-family="sans-serif" font-size="13" lengthAdjust="spacing" textLength="339">RegisterResourceRequest(type, name, inputs, options)</text><polygon fill="#A80036" points="761 117.42 771 121.42 761 125.42 765 121.42" style="stroke:#a80036;stroke-width:1"/><line style="stroke:#a80036;stroke-width:1" x1="431" x2="767" y1="121.42" y2="121.42"/><text x="438" y="116.678" fill="#000" font-family="sans-serif" font-size="13" lengthAdjust="spacing" textLength="323">RegisterResourceEvent(type, name, inputs, options)</text><polygon fill="#A80036" points="1169 146.731 1179 150.731 1169 154.731 1173 150.731" style="stroke:#a80036;stroke-width:1"/><line style="stroke:#a80036;stroke-width:1" x1="783" x2="1175" y1="150.731" y2="150.731"/><text x="790" y="145.988" fill="#000" font-family="sans-serif" font-size="13" lengthAdjust="spacing" textLength="172">CheckRequest(type, inputs)</text><polygon fill="#A80036" points="794 176.041 784 180.041 794 184.041 790 180.041" style="stroke:#a80036;stroke-width:1"/><line style="stroke:#a80036;stroke-width:1" x1="788" x2="1185" y1="180.041" y2="180.041"/><text x="800" y="175.299" fill="#000" font-family="sans-serif" font-size="13" lengthAdjust="spacing" textLength="205">CheckResponse(inputs&apos;, failures)</text><polygon fill="#A80036" points="964 218.007 974 222.007 964 226.007 968 222.007" style="stroke:#a80036;stroke-width:1"/><line style="stroke:#a80036;stroke-width:1" x1="778" x2="970" y1="222.007" y2="222.007"/><text x="785" y="217.265" fill="#000" font-family="sans-serif" font-size="13" lengthAdjust="spacing" textLength="174">CreateStep(inputs&apos;, options)</text><path fill="#FBFB77" d="M375,193.041 L375,233.041 L764,233.041 L764,203.041 L754,193.041 L375,193.041" filter="url(#f1t98qpe1nkdme)" style="stroke:#a80036;stroke-width:1"/><path fill="#FBFB77" d="M754,193.041 L754,203.041 L764,203.041 L754,193.041" style="stroke:#a80036;stroke-width:1"/><text x="381" y="210.609" fill="#000" font-family="sans-serif" font-size="13" lengthAdjust="spacing" textLength="357">This is fire-and-forget on the part of the step generator.</text><text x="381" y="225.92" fill="#000" font-family="sans-serif" font-size="13" lengthAdjust="spacing" textLength="368">The step will run in parallel with steps for other resources.</text><polygon fill="#A80036" points="1169 259.973 1179 263.973 1169 267.973 1173 263.973" style="stroke:#a80036;stroke-width:1"/><line style="stroke:#a80036;stroke-width:1" x1="986" x2="1175" y1="263.973" y2="263.973"/><text x="993" y="259.231" fill="#000" font-family="sans-serif" font-size="13" lengthAdjust="spacing" textLength="176">CreateRequest(type, inputs&apos;)</text><polygon fill="#A80036" points="997 289.283 987 293.283 997 297.283 993 293.283" style="stroke:#a80036;stroke-width:1"/><line style="stroke:#a80036;stroke-width:1" x1="991" x2="1185" y1="293.283" y2="293.283"/><text x="1003" y="288.541" fill="#000" font-family="sans-serif" font-size="13" lengthAdjust="spacing" textLength="168">CreateResponse(new state)</text><polygon fill="#A80036" points="442 318.594 432 322.594 442 326.594 438 322.594" style="stroke:#a80036;stroke-width:1"/><line style="stroke:#a80036;stroke-width:1" x1="436" x2="980" y1="322.594" y2="322.594"/><text x="448" y="317.852" fill="#000" font-family="sans-serif" font-size="13" lengthAdjust="spacing" textLength="99">done(new state)</text><polygon fill="#A80036" points="74 347.904 64 351.904 74 355.904 70 351.904" style="stroke:#a80036;stroke-width:1"/><line style="stroke:#a80036;stroke-width:1" x1="68" x2="425" y1="351.904" y2="351.904"/><text x="80" y="347.162" fill="#000" font-family="sans-serif" font-size="13" lengthAdjust="spacing" textLength="287">RegisterResourceResponse(urn, ID, new state)</text></g></svg>