<svg xmlns="http://www.w3.org/2000/svg" xmlns:xlink="http://www.w3.org/1999/xlink" width="1476" height="531" contentScriptType="application/ecmascript" contentStyleType="text/css" style="width:1476px;height:531px;background:#fff" preserveAspectRatio="none" version="1.1" viewBox="0 0 1476 531" zoomAndPan="magnify"><defs><filter id="f1ah111f6ocowp" width="300%" height="300%" x="-1" y="-1"><feGaussianBlur result="blurOut" stdDeviation="2"/><feColorMatrix in="blurOut" result="blurOut2" type="matrix" values="0 0 0 0 0 0 0 0 0 0 0 0 0 0 0 0 0 0 .4 0"/><feOffset dx="4" dy="4" in="blurOut2" result="blurOut3"/><feBlend in="SourceGraphic" in2="blurOut3" mode="normal"/></filter></defs><g><rect style="stroke:#a80036;stroke-width:1" width="835" height="519.635" x="352.5" y="6" fill="#DDD"/><text x="746.5" y="18.568" fill="#000" font-family="sans-serif" font-size="13" font-weight="bold" lengthAdjust="spacing" textLength="47">Engine</text><rect style="stroke:#a80036;stroke-width:1" width="10" height="377.037" x="421" y="92.109" fill="#FFF" filter="url(#f1ah111f6ocowp)"/><rect style="stroke:#a80036;stroke-width:1" width="10" height="159.208" x="773" y="121.42" fill="#FFF" filter="url(#f1ah111f6ocowp)"/><rect style="stroke:#a80036;stroke-width:1" width="10" height="159.208" x="1122" y="280.628" fill="#FFF" filter="url(#f1ah111f6ocowp)"/><rect style="stroke:#a80036;stroke-width:1" width="10" height="29.311" x="1390" y="150.731" fill="#FFF" filter="url(#f1ah111f6ocowp)"/><rect style="stroke:#a80036;stroke-width:1" width="10" height="29.311" x="1390" y="209.352" fill="#FFF" filter="url(#f1ah111f6ocowp)"/><rect style="stroke:#a80036;stroke-width:1" width="10" height="29.311" x="1390" y="322.594" fill="#FFF" filter="url(#f1ah111f6ocowp)"/><rect style="stroke:#a80036;stroke-width:1" width="10" height="29.311" x="1390" y="381.215" fill="#FFF" filter="url(#f1ah111f6ocowp)"/><line style="stroke:#a80036;stroke-width:1;stroke-dasharray:5,5" x1="63" x2="63" y1="60.799" y2="487.147"/><line style="stroke:#a80036;stroke-width:1;stroke-dasharray:5,5" x1="425.5" x2="425.5" y1="60.799" y2="487.147"/><line style="stroke:#a80036;stroke-width:1;stroke-dasharray:5,5" x1="777.5" x2="777.5" y1="60.799" y2="487.147"/><line style="stroke:#a80036;stroke-width:1;stroke-dasharray:5,5" x1="1126.5" x2="1126.5" y1="60.799" y2="487.147"/><line style="stroke:#a80036;stroke-width:1;stroke-dasharray:5,5" x1="1395" x2="1395" y1="60.799" y2="487.147"/><rect style="stroke:#a80036;stroke-width:1.5" width="112" height="30.488" x="5" y="25.311" fill="#FEFECE" filter="url(#f1ah111f6ocowp)"/><text x="12" y="45.846" fill="#000" font-family="sans-serif" font-size="14" lengthAdjust="spacing" textLength="98">Language SDK</text><rect style="stroke:#a80036;stroke-width:1.5" width="112" height="30.488" x="5" y="486.147" fill="#FEFECE" filter="url(#f1ah111f6ocowp)"/><text x="12" y="506.682" fill="#000" font-family="sans-serif" font-size="14" lengthAdjust="spacing" textLength="98">Language SDK</text><rect style="stroke:#a80036;stroke-width:1.5" width="135" height="30.488" x="356.5" y="25.311" fill="#FEFECE" filter="url(#f1ah111f6ocowp)"/><text x="363.5" y="45.846" fill="#000" font-family="sans-serif" font-size="14" lengthAdjust="spacing" textLength="121">Resource Monitor</text><rect style="stroke:#a80036;stroke-width:1.5" width="135" height="30.488" x="356.5" y="486.147" fill="#FEFECE" filter="url(#f1ah111f6ocowp)"/><text x="363.5" y="506.682" fill="#000" font-family="sans-serif" font-size="14" lengthAdjust="spacing" textLength="121">Resource Monitor</text><rect style="stroke:#a80036;stroke-width:1.5" width="117" height="30.488" x="717.5" y="25.311" fill="#FEFECE" filter="url(#f1ah111f6ocowp)"/><text x="724.5" y="45.846" fill="#000" font-family="sans-serif" font-size="14" lengthAdjust="spacing" textLength="103">Step Generator</text><rect style="stroke:#a80036;stroke-width:1.5" width="117" height="30.488" x="717.5" y="486.147" fill="#FEFECE" filter="url(#f1ah111f6ocowp)"/><text x="724.5" y="506.682" fill="#000" font-family="sans-serif" font-size="14" lengthAdjust="spacing" textLength="103">Step Generator</text><rect style="stroke:#a80036;stroke-width:1.5" width="109" height="30.488" x="1070.5" y="25.311" fill="#FEFECE" filter="url(#f1ah111f6ocowp)"/><text x="1077.5" y="45.846" fill="#000" font-family="sans-serif" font-size="14" lengthAdjust="spacing" textLength="95">Step Executor</text><rect style="stroke:#a80036;stroke-width:1.5" width="109" height="30.488" x="1070.5" y="486.147" fill="#FEFECE" filter="url(#f1ah111f6ocowp)"/><text x="1077.5" y="506.682" fill="#000" font-family="sans-serif" font-size="14" lengthAdjust="spacing" textLength="95">Step Executor</text><rect style="stroke:#a80036;stroke-width:1.5" width="138" height="30.488" x="1324" y="25.311" fill="#FEFECE" filter="url(#f1ah111f6ocowp)"/><text x="1331" y="45.846" fill="#000" font-family="sans-serif" font-size="14" lengthAdjust="spacing" textLength="124">Resource Provider</text><rect style="stroke:#a80036;stroke-width:1.5" width="138" height="30.488" x="1324" y="486.147" fill="#FEFECE" filter="url(#f1ah111f6ocowp)"/><text x="1331" y="506.682" fill="#000" font-family="sans-serif" font-size="14" lengthAdjust="spacing" textLength="124">Resource Provider</text><rect style="stroke:#a80036;stroke-width:1" width="10" height="377.037" x="421" y="92.109" fill="#FFF" filter="url(#f1ah111f6ocowp)"/><rect style="stroke:#a80036;stroke-width:1" width="10" height="159.208" x="773" y="121.42" fill="#FFF" filter="url(#f1ah111f6ocowp)"/><rect style="stroke:#a80036;stroke-width:1" width="10" height="159.208" x="1122" y="280.628" fill="#FFF" filter="url(#f1ah111f6ocowp)"/><rect style="stroke:#a80036;stroke-width:1" width="10" height="29.311" x="1390" y="150.731" fill="#FFF" filter="url(#f1ah111f6ocowp)"/><rect style="stroke:#a80036;stroke-width:1" width="10" height="29.311" x="1390" y="209.352" fill="#FFF" filter="url(#f1ah111f6ocowp)"/><rect style="stroke:#a80036;stroke-width:1" width="10" height="29.311" x="1390" y="322.594" fill="#FFF" filter="url(#f1ah111f6ocowp)"/><rect style="stroke:#a80036;stroke-width:1" width="10" height="29.311" x="1390" y="381.215" fill="#FFF" filter="url(#f1ah111f6ocowp)"/><polygon fill="#A80036" points="409 88.109 419 92.109 409 96.109 413 92.109" style="stroke:#a80036;stroke-width:1"/><line style="stroke:#a80036;stroke-width:1" x1="63" x2="415" y1="92.109" y2="92.109"/><text x="70" y="87.367" fill="#000" font-family="sans-serif" font-size="13" lengthAdjust="spacing" textLength="339">RegisterResourceRequest(type, name, inputs, options)</text><polygon fill="#A80036" points="761 117.42 771 121.42 761 125.42 765 121.42" style="stroke:#a80036;stroke-width:1"/><line style="stroke:#a80036;stroke-width:1" x1="431" x2="767" y1="121.42" y2="121.42"/><text x="438" y="116.678" fill="#000" font-family="sans-serif" font-size="13" lengthAdjust="spacing" textLength="323">RegisterResourceEvent(type, name, inputs, options)</text><polygon fill="#A80036" points="1378 146.731 1388 150.731 1378 154.731 1382 150.731" style="stroke:#a80036;stroke-width:1"/><line style="stroke:#a80036;stroke-width:1" x1="783" x2="1384" y1="150.731" y2="150.731"/><text x="790" y="145.988" fill="#000" font-family="sans-serif" font-size="13" lengthAdjust="spacing" textLength="244">CheckRequest(type, inputs, old inputs)</text><polygon fill="#A80036" points="794 176.041 784 180.041 794 184.041 790 180.041" style="stroke:#a80036;stroke-width:1"/><line style="stroke:#a80036;stroke-width:1" x1="788" x2="1394" y1="180.041" y2="180.041"/><text x="800" y="175.299" fill="#000" font-family="sans-serif" font-size="13" lengthAdjust="spacing" textLength="205">CheckResponse(inputs&apos;, failures)</text><polygon fill="#A80036" points="1378 205.352 1388 209.352 1378 213.352 1382 209.352" style="stroke:#a80036;stroke-width:1"/><line style="stroke:#a80036;stroke-width:1" x1="783" x2="1384" y1="209.352" y2="209.352"/><text x="790" y="204.609" fill="#000" font-family="sans-serif" font-size="13" lengthAdjust="spacing" textLength="279">DiffRequest(type, inputs&apos;, old state, options)</text><polygon fill="#A80036" points="794 234.662 784 238.662 794 242.662 790 238.662" style="stroke:#a80036;stroke-width:1"/><line style="stroke:#a80036;stroke-width:1" x1="788" x2="1394" y1="238.662" y2="238.662"/><text x="800" y="233.92" fill="#000" font-family="sans-serif" font-size="13" lengthAdjust="spacing" textLength="121">DiffResponse(diffs)</text><polygon fill="#A80036" points="1110 276.628 1120 280.628 1110 284.628 1114 280.628" style="stroke:#a80036;stroke-width:1"/><line style="stroke:#a80036;stroke-width:1" x1="778" x2="1116" y1="280.628" y2="280.628"/><text x="785" y="275.886" fill="#000" font-family="sans-serif" font-size="13" lengthAdjust="spacing" textLength="320">[DeleteStep(old state), CreateStep(inputs&apos;, options)]</text><path fill="#FBFB77" d="M368,251.6621 L368,291.6621 L764,291.6621 L764,261.6621 L754,251.6621 L368,251.6621" filter="url(#f1ah111f6ocowp)" style="stroke:#a80036;stroke-width:1"/><path fill="#FBFB77" d="M754,251.6621 L754,261.6621 L764,261.6621 L754,251.6621" style="stroke:#a80036;stroke-width:1"/><text x="374" y="269.231" fill="#000" font-family="sans-serif" font-size="13" lengthAdjust="spacing" textLength="357">This is fire-and-forget on the part of the step generator.</text><text x="374" y="284.541" fill="#000" font-family="sans-serif" font-size="13" lengthAdjust="spacing" textLength="375">The steps will run in parallel with steps for other resources.</text><polygon fill="#A80036" points="1378 318.594 1388 322.594 1378 326.594 1382 322.594" style="stroke:#a80036;stroke-width:1"/><line style="stroke:#a80036;stroke-width:1" x1="1132" x2="1384" y1="322.594" y2="322.594"/><text x="1139" y="317.852" fill="#000" font-family="sans-serif" font-size="13" lengthAdjust="spacing" textLength="188">DeleteRequest(type, old state)</text><polygon fill="#A80036" points="1143 347.904 1133 351.904 1143 355.904 1139 351.904" style="stroke:#a80036;stroke-width:1"/><line style="stroke:#a80036;stroke-width:1" x1="1137" x2="1394" y1="351.904" y2="351.904"/><text x="1149" y="347.162" fill="#000" font-family="sans-serif" font-size="13" lengthAdjust="spacing" textLength="108">DeleteResponse()</text><polygon fill="#A80036" points="1378 377.215 1388 381.215 1378 385.215 1382 381.215" style="stroke:#a80036;stroke-width:1"/><line style="stroke:#a80036;stroke-width:1" x1="1132" x2="1384" y1="381.215" y2="381.215"/><text x="1139" y="376.473" fill="#000" font-family="sans-serif" font-size="13" lengthAdjust="spacing" textLength="239">CreateRequest(type, inputs&apos;, old state)</text><polygon fill="#A80036" points="1143 406.525 1133 410.525 1143 414.525 1139 410.525" style="stroke:#a80036;stroke-width:1"/><line style="stroke:#a80036;stroke-width:1" x1="1137" x2="1394" y1="410.525" y2="410.525"/><text x="1149" y="405.783" fill="#000" font-family="sans-serif" font-size="13" lengthAdjust="spacing" textLength="168">CreateResponse(new state)</text><polygon fill="#A80036" points="442 435.836 432 439.836 442 443.836 438 439.836" style="stroke:#a80036;stroke-width:1"/><line style="stroke:#a80036;stroke-width:1" x1="436" x2="1126" y1="439.836" y2="439.836"/><text x="448" y="435.094" fill="#000" font-family="sans-serif" font-size="13" lengthAdjust="spacing" textLength="99">done(new state)</text><polygon fill="#A80036" points="74 465.147 64 469.147 74 473.147 70 469.147" style="stroke:#a80036;stroke-width:1"/><line style="stroke:#a80036;stroke-width:1" x1="68" x2="425" y1="469.147" y2="469.147"/><text x="80" y="464.404" fill="#000" font-family="sans-serif" font-size="13" lengthAdjust="spacing" textLength="287">RegisterResourceResponse(urn, ID, new state)</text></g></svg>