<svg xmlns="http://www.w3.org/2000/svg" xmlns:xlink="http://www.w3.org/1999/xlink" width="175" height="247" contentScriptType="application/ecmascript" contentStyleType="text/css" style="width:175px;height:247px;background:#fff" preserveAspectRatio="none" version="1.1" viewBox="0 0 175 247" zoomAndPan="magnify"><defs><filter id="f1xo3jf5eexdn" width="300%" height="300%" x="-1" y="-1"><feGaussianBlur result="blurOut" stdDeviation="2"/><feColorMatrix in="blurOut" result="blurOut2" type="matrix" values="0 0 0 0 0 0 0 0 0 0 0 0 0 0 0 0 0 0 .4 0"/><feOffset dx="4" dy="4" in="blurOut2" result="blurOut3"/><feBlend in="SourceGraphic" in2="blurOut3" mode="normal"/></filter></defs><g><rect style="stroke:#a80036;stroke-width:1.5" width="30" height="36.488" x="39" y="199" fill="#FEFECE" filter="url(#f1xo3jf5eexdn)"/><text x="49" y="222.535" fill="#000" font-family="sans-serif" font-size="14" lengthAdjust="spacing" textLength="10">A</text><rect style="stroke:#a80036;stroke-width:1.5" width="28" height="36.488" x="8" y="103" fill="#FEFECE" filter="url(#f1xo3jf5eexdn)"/><text x="18" y="126.535" fill="#000" font-family="sans-serif" font-size="14" lengthAdjust="spacing" textLength="8">B</text><rect style="stroke:#a80036;stroke-width:1.5" width="30" height="36.488" x="71" y="103" fill="#FEFECE" filter="url(#f1xo3jf5eexdn)"/><text x="81" y="126.535" fill="#000" font-family="sans-serif" font-size="14" lengthAdjust="spacing" textLength="10">C</text><rect style="stroke:#a80036;stroke-width:1.5" width="30" height="36.488" x="7" y="7" fill="#FEFECE" filter="url(#f1xo3jf5eexdn)"/><text x="17" y="30.535" fill="#000" font-family="sans-serif" font-size="14" lengthAdjust="spacing" textLength="10">D</text><rect style="stroke:#a80036;stroke-width:1.5" width="28" height="36.488" x="72" y="7" fill="#FEFECE" filter="url(#f1xo3jf5eexdn)"/><text x="82" y="30.535" fill="#000" font-family="sans-serif" font-size="14" lengthAdjust="spacing" textLength="8">E</text><rect style="stroke:#a80036;stroke-width:1.5" width="28" height="36.488" x="135" y="7" fill="#FEFECE" filter="url(#f1xo3jf5eexdn)"/><text x="145" y="30.535" fill="#000" font-family="sans-serif" font-size="14" lengthAdjust="spacing" textLength="8">F</text><path id="E-to-C" fill="none" d="M86,43.24 C86,58.48 86,80.81 86,97.46" style="stroke:#a80036;stroke-width:1"/><polygon fill="#A80036" points="86 102.87 90 93.87 86 97.87 82 93.87 86 102.87" style="stroke:#a80036;stroke-width:1"/><path id="F-to-C" fill="none" d="M137.44,43.24 C127.05,58.74 111.75,81.59 100.53,98.32" style="stroke:#a80036;stroke-width:1"/><polygon fill="#A80036" points="97.48 102.87 105.813 97.62 100.263 98.716 99.167 93.167 97.48 102.87" style="stroke:#a80036;stroke-width:1"/><path id="C-to-A" fill="none" d="M80.13,139.24 C74.9,154.61 67.21,177.2 61.53,193.89" style="stroke:#a80036;stroke-width:1"/><polygon fill="#A80036" points="59.83 198.87 66.523 191.645 61.445 194.138 58.952 189.06 59.83 198.87" style="stroke:#a80036;stroke-width:1"/><path id="D-to-B" fill="none" d="M22,43.24 C22,58.48 22,80.81 22,97.46" style="stroke:#a80036;stroke-width:1"/><polygon fill="#A80036" points="22 102.87 26 93.87 22 97.87 18 93.87 22 102.87" style="stroke:#a80036;stroke-width:1"/><path id="B-to-A" fill="none" d="M27.87,139.24 C33.1,154.61 40.79,177.2 46.47,193.89" style="stroke:#a80036;stroke-width:1"/><polygon fill="#A80036" points="48.17 198.87 49.048 189.06 46.555 194.138 41.477 191.645 48.17 198.87" style="stroke:#a80036;stroke-width:1"/></g></svg>