<svg xmlns="http://www.w3.org/2000/svg" xmlns:xlink="http://www.w3.org/1999/xlink" width="1394" height="473" contentScriptType="application/ecmascript" contentStyleType="text/css" style="width:1394px;height:473px;background:#fff" preserveAspectRatio="none" version="1.1" viewBox="0 0 1394 473" zoomAndPan="magnify"><defs><filter id="f13m5p3nwy7etc" width="300%" height="300%" x="-1" y="-1"><feGaussianBlur result="blurOut" stdDeviation="2"/><feColorMatrix in="blurOut" result="blurOut2" type="matrix" values="0 0 0 0 0 0 0 0 0 0 0 0 0 0 0 0 0 0 .4 0"/><feOffset dx="4" dy="4" in="blurOut2" result="blurOut3"/><feBlend in="SourceGraphic" in2="blurOut3" mode="normal"/></filter></defs><g><rect style="stroke:#a80036;stroke-width:1" width="688" height="461.014" x="352.5" y="6" fill="#DDD"/><text x="673" y="18.568" fill="#000" font-family="sans-serif" font-size="13" font-weight="bold" lengthAdjust="spacing" textLength="47">Engine</text><rect style="stroke:#a80036;stroke-width:1" width="10" height="318.416" x="421" y="92.109" fill="#FFF" filter="url(#f13m5p3nwy7etc)"/><rect style="stroke:#a80036;stroke-width:1" width="10" height="41.966" x="773" y="121.42" fill="#FFF" filter="url(#f13m5p3nwy7etc)"/><rect style="stroke:#a80036;stroke-width:1" width="10" height="217.829" x="975" y="163.386" fill="#FFF" filter="url(#f13m5p3nwy7etc)"/><rect style="stroke:#a80036;stroke-width:1" width="10" height="29.311" x="1308" y="205.352" fill="#FFF" filter="url(#f13m5p3nwy7etc)"/><rect style="stroke:#a80036;stroke-width:1" width="10" height="29.311" x="1308" y="263.973" fill="#FFF" filter="url(#f13m5p3nwy7etc)"/><rect style="stroke:#a80036;stroke-width:1" width="10" height="29.311" x="1308" y="322.594" fill="#FFF" filter="url(#f13m5p3nwy7etc)"/><line style="stroke:#a80036;stroke-width:1;stroke-dasharray:5,5" x1="63" x2="63" y1="60.799" y2="428.525"/><line style="stroke:#a80036;stroke-width:1;stroke-dasharray:5,5" x1="425.5" x2="425.5" y1="60.799" y2="428.525"/><line style="stroke:#a80036;stroke-width:1;stroke-dasharray:5,5" x1="777.5" x2="777.5" y1="60.799" y2="428.525"/><line style="stroke:#a80036;stroke-width:1;stroke-dasharray:5,5" x1="979.5" x2="979.5" y1="60.799" y2="428.525"/><line style="stroke:#a80036;stroke-width:1;stroke-dasharray:5,5" x1="1313" x2="1313" y1="60.799" y2="428.525"/><rect style="stroke:#a80036;stroke-width:1.5" width="112" height="30.488" x="5" y="25.311" fill="#FEFECE" filter="url(#f13m5p3nwy7etc)"/><text x="12" y="45.846" fill="#000" font-family="sans-serif" font-size="14" lengthAdjust="spacing" textLength="98">Language SDK</text><rect style="stroke:#a80036;stroke-width:1.5" width="112" height="30.488" x="5" y="427.525" fill="#FEFECE" filter="url(#f13m5p3nwy7etc)"/><text x="12" y="448.06" fill="#000" font-family="sans-serif" font-size="14" lengthAdjust="spacing" textLength="98">Language SDK</text><rect style="stroke:#a80036;stroke-width:1.5" width="135" height="30.488" x="356.5" y="25.311" fill="#FEFECE" filter="url(#f13m5p3nwy7etc)"/><text x="363.5" y="45.846" fill="#000" font-family="sans-serif" font-size="14" lengthAdjust="spacing" textLength="121">Resource Monitor</text><rect style="stroke:#a80036;stroke-width:1.5" width="135" height="30.488" x="356.5" y="427.525" fill="#FEFECE" filter="url(#f13m5p3nwy7etc)"/><text x="363.5" y="448.06" fill="#000" font-family="sans-serif" font-size="14" lengthAdjust="spacing" textLength="121">Resource Monitor</text><rect style="stroke:#a80036;stroke-width:1.5" width="117" height="30.488" x="717.5" y="25.311" fill="#FEFECE" filter="url(#f13m5p3nwy7etc)"/><text x="724.5" y="45.846" fill="#000" font-family="sans-serif" font-size="14" lengthAdjust="spacing" textLength="103">Step Generator</text><rect style="stroke:#a80036;stroke-width:1.5" width="117" height="30.488" x="717.5" y="427.525" fill="#FEFECE" filter="url(#f13m5p3nwy7etc)"/><text x="724.5" y="448.06" fill="#000" font-family="sans-serif" font-size="14" lengthAdjust="spacing" textLength="103">Step Generator</text><rect style="stroke:#a80036;stroke-width:1.5" width="109" height="30.488" x="923.5" y="25.311" fill="#FEFECE" filter="url(#f13m5p3nwy7etc)"/><text x="930.5" y="45.846" fill="#000" font-family="sans-serif" font-size="14" lengthAdjust="spacing" textLength="95">Step Executor</text><rect style="stroke:#a80036;stroke-width:1.5" width="109" height="30.488" x="923.5" y="427.525" fill="#FEFECE" filter="url(#f13m5p3nwy7etc)"/><text x="930.5" y="448.06" fill="#000" font-family="sans-serif" font-size="14" lengthAdjust="spacing" textLength="95">Step Executor</text><rect style="stroke:#a80036;stroke-width:1.5" width="138" height="30.488" x="1242" y="25.311" fill="#FEFECE" filter="url(#f13m5p3nwy7etc)"/><text x="1249" y="45.846" fill="#000" font-family="sans-serif" font-size="14" lengthAdjust="spacing" textLength="124">Resource Provider</text><rect style="stroke:#a80036;stroke-width:1.5" width="138" height="30.488" x="1242" y="427.525" fill="#FEFECE" filter="url(#f13m5p3nwy7etc)"/><text x="1249" y="448.06" fill="#000" font-family="sans-serif" font-size="14" lengthAdjust="spacing" textLength="124">Resource Provider</text><rect style="stroke:#a80036;stroke-width:1" width="10" height="318.416" x="421" y="92.109" fill="#FFF" filter="url(#f13m5p3nwy7etc)"/><rect style="stroke:#a80036;stroke-width:1" width="10" height="41.966" x="773" y="121.42" fill="#FFF" filter="url(#f13m5p3nwy7etc)"/><rect style="stroke:#a80036;stroke-width:1" width="10" height="217.829" x="975" y="163.386" fill="#FFF" filter="url(#f13m5p3nwy7etc)"/><rect style="stroke:#a80036;stroke-width:1" width="10" height="29.311" x="1308" y="205.352" fill="#FFF" filter="url(#f13m5p3nwy7etc)"/><rect style="stroke:#a80036;stroke-width:1" width="10" height="29.311" x="1308" y="263.973" fill="#FFF" filter="url(#f13m5p3nwy7etc)"/><rect style="stroke:#a80036;stroke-width:1" width="10" height="29.311" x="1308" y="322.594" fill="#FFF" filter="url(#f13m5p3nwy7etc)"/><polygon fill="#A80036" points="409 88.109 419 92.109 409 96.109 413 92.109" style="stroke:#a80036;stroke-width:1"/><line style="stroke:#a80036;stroke-width:1" x1="63" x2="415" y1="92.109" y2="92.109"/><text x="70" y="87.367" fill="#000" font-family="sans-serif" font-size="13" lengthAdjust="spacing" textLength="339">RegisterResourceRequest(type, name, inputs, options)</text><polygon fill="#A80036" points="761 117.42 771 121.42 761 125.42 765 121.42" style="stroke:#a80036;stroke-width:1"/><line style="stroke:#a80036;stroke-width:1" x1="431" x2="767" y1="121.42" y2="121.42"/><text x="438" y="116.678" fill="#000" font-family="sans-serif" font-size="13" lengthAdjust="spacing" textLength="323">RegisterResourceEvent(type, name, inputs, options)</text><polygon fill="#A80036" points="963 159.386 973 163.386 963 167.386 967 163.386" style="stroke:#a80036;stroke-width:1"/><line style="stroke:#a80036;stroke-width:1" x1="778" x2="969" y1="163.386" y2="163.386"/><text x="785" y="158.644" fill="#000" font-family="sans-serif" font-size="13" lengthAdjust="spacing" textLength="173">ImportStep(inputs, options)</text><path fill="#FBFB77" d="M375,134.4199 L375,174.4199 L764,174.4199 L764,144.4199 L754,134.4199 L375,134.4199" filter="url(#f13m5p3nwy7etc)" style="stroke:#a80036;stroke-width:1"/><path fill="#FBFB77" d="M754,134.4199 L754,144.4199 L764,144.4199 L754,134.4199" style="stroke:#a80036;stroke-width:1"/><text x="381" y="151.988" fill="#000" font-family="sans-serif" font-size="13" lengthAdjust="spacing" textLength="357">This is fire-and-forget on the part of the step generator.</text><text x="381" y="167.299" fill="#000" font-family="sans-serif" font-size="13" lengthAdjust="spacing" textLength="368">The step will run in parallel with steps for other resources.</text><polygon fill="#A80036" points="1296 201.352 1306 205.352 1296 209.352 1300 205.352" style="stroke:#a80036;stroke-width:1"/><line style="stroke:#a80036;stroke-width:1" x1="985" x2="1302" y1="205.352" y2="205.352"/><text x="992" y="200.609" fill="#000" font-family="sans-serif" font-size="13" lengthAdjust="spacing" textLength="135">ReadRequest(type, id)</text><polygon fill="#A80036" points="996 230.662 986 234.662 996 238.662 992 234.662" style="stroke:#a80036;stroke-width:1"/><line style="stroke:#a80036;stroke-width:1" x1="990" x2="1312" y1="234.662" y2="234.662"/><text x="1002" y="229.92" fill="#000" font-family="sans-serif" font-size="13" lengthAdjust="spacing" textLength="275">ReadResponse(current inputs, current state)</text><polygon fill="#A80036" points="1296 259.973 1306 263.973 1296 267.973 1300 263.973" style="stroke:#a80036;stroke-width:1"/><line style="stroke:#a80036;stroke-width:1" x1="985" x2="1302" y1="263.973" y2="263.973"/><text x="992" y="259.231" fill="#000" font-family="sans-serif" font-size="13" lengthAdjust="spacing" textLength="269">CheckRequest(type, inputs, current inputs)</text><polygon fill="#A80036" points="996 289.283 986 293.283 996 297.283 992 293.283" style="stroke:#a80036;stroke-width:1"/><line style="stroke:#a80036;stroke-width:1" x1="990" x2="1312" y1="293.283" y2="293.283"/><text x="1002" y="288.541" fill="#000" font-family="sans-serif" font-size="13" lengthAdjust="spacing" textLength="205">CheckResponse(inputs&apos;, failures)</text><polygon fill="#A80036" points="1296 318.594 1306 322.594 1296 326.594 1300 322.594" style="stroke:#a80036;stroke-width:1"/><line style="stroke:#a80036;stroke-width:1" x1="985" x2="1302" y1="322.594" y2="322.594"/><text x="992" y="317.852" fill="#000" font-family="sans-serif" font-size="13" lengthAdjust="spacing" textLength="304">DiffRequest(type, inputs&apos;, current state, options)</text><polygon fill="#A80036" points="996 347.904 986 351.904 996 355.904 992 351.904" style="stroke:#a80036;stroke-width:1"/><line style="stroke:#a80036;stroke-width:1" x1="990" x2="1312" y1="351.904" y2="351.904"/><text x="1002" y="347.162" fill="#000" font-family="sans-serif" font-size="13" lengthAdjust="spacing" textLength="121">DiffResponse(diffs)</text><polygon fill="#A80036" points="442 377.215 432 381.215 442 385.215 438 381.215" style="stroke:#a80036;stroke-width:1"/><line style="stroke:#a80036;stroke-width:1" x1="436" x2="979" y1="381.215" y2="381.215"/><text x="448" y="376.473" fill="#000" font-family="sans-serif" font-size="13" lengthAdjust="spacing" textLength="119">done(current state)</text><polygon fill="#A80036" points="74 406.525 64 410.525 74 414.525 70 410.525" style="stroke:#a80036;stroke-width:1"/><line style="stroke:#a80036;stroke-width:1" x1="68" x2="425" y1="410.525" y2="410.525"/><text x="80" y="405.783" fill="#000" font-family="sans-serif" font-size="13" lengthAdjust="spacing" textLength="307">RegisterResourceResponse(urn, ID, current state)</text></g></svg>