<svg xmlns="http://www.w3.org/2000/svg" xmlns:xlink="http://www.w3.org/1999/xlink" width="1224" height="545" contentScriptType="application/ecmascript" contentStyleType="text/css" style="width:1224px;height:545px;background:#fff" preserveAspectRatio="none" version="1.1" viewBox="0 0 1224 545" zoomAndPan="magnify"><defs><filter id="f190crdgwhoxlj" width="300%" height="300%" x="-1" y="-1"><feGaussianBlur result="blurOut" stdDeviation="2"/><feColorMatrix in="blurOut" result="blurOut2" type="matrix" values="0 0 0 0 0 0 0 0 0 0 0 0 0 0 0 0 0 0 .4 0"/><feOffset dx="4" dy="4" in="blurOut2" result="blurOut3"/><feBlend in="SourceGraphic" in2="blurOut3" mode="normal"/></filter></defs><g><rect style="stroke:#a80036;stroke-width:1" width="308" height="533.635" x="563" y="6" fill="#DDD"/><text x="693.5" y="18.568" fill="#000" font-family="sans-serif" font-size="13" font-weight="bold" lengthAdjust="spacing" textLength="47">Engine</text><rect style="stroke:#a80036;stroke-width:1" width="10" height="29.311" x="286.5" y="395.215" fill="#FFF" filter="url(#f190crdgwhoxlj)"/><rect style="stroke:#a80036;stroke-width:1" width="10" height="29.311" x="453" y="453.836" fill="#FFF" filter="url(#f190crdgwhoxlj)"/><rect style="stroke:#a80036;stroke-width:1" width="10" height="34.31" x="616.5" y="92.109" fill="#FFF" filter="url(#f190crdgwhoxlj)"/><rect style="stroke:#a80036;stroke-width:1" width="10" height="210.174" x="805.5" y="126.42" fill="#FFF" filter="url(#f190crdgwhoxlj)"/><rect style="stroke:#a80036;stroke-width:1" width="10" height="29.311" x="1138.5" y="160.731" fill="#FFF" filter="url(#f190crdgwhoxlj)"/><rect style="stroke:#a80036;stroke-width:1" width="10" height="29.311" x="1138.5" y="219.352" fill="#FFF" filter="url(#f190crdgwhoxlj)"/><rect style="stroke:#a80036;stroke-width:1" width="10" height="29.311" x="1138.5" y="277.973" fill="#FFF" filter="url(#f190crdgwhoxlj)"/><line style="stroke:#a80036;stroke-width:1;stroke-dasharray:5,5" x1="109" x2="109" y1="60.799" y2="501.147"/><line style="stroke:#a80036;stroke-width:1;stroke-dasharray:5,5" x1="291" x2="291" y1="60.799" y2="501.147"/><line style="stroke:#a80036;stroke-width:1;stroke-dasharray:5,5" x1="458" x2="458" y1="60.799" y2="501.147"/><line style="stroke:#a80036;stroke-width:1;stroke-dasharray:5,5" x1="621" x2="621" y1="60.799" y2="501.147"/><line style="stroke:#a80036;stroke-width:1;stroke-dasharray:5,5" x1="810" x2="810" y1="60.799" y2="501.147"/><line style="stroke:#a80036;stroke-width:1;stroke-dasharray:5,5" x1="1143.5" x2="1143.5" y1="60.799" y2="501.147"/><rect style="stroke:#a80036;stroke-width:1.5" width="205" height="30.488" x="5" y="25.311" fill="#FEFECE" filter="url(#f190crdgwhoxlj)"/><text x="12" y="45.846" fill="#000" font-family="sans-serif" font-size="14" lengthAdjust="spacing" textLength="191">`pulumi import` Command</text><rect style="stroke:#a80036;stroke-width:1.5" width="205" height="30.488" x="5" y="500.147" fill="#FEFECE" filter="url(#f190crdgwhoxlj)"/><text x="12" y="520.682" fill="#000" font-family="sans-serif" font-size="14" lengthAdjust="spacing" textLength="191">`pulumi import` Command</text><rect style="stroke:#a80036;stroke-width:1.5" width="111" height="30.488" x="234" y="25.311" fill="#FEFECE" filter="url(#f190crdgwhoxlj)"/><text x="241" y="45.846" fill="#000" font-family="sans-serif" font-size="14" lengthAdjust="spacing" textLength="97">PCL Converter</text><rect style="stroke:#a80036;stroke-width:1.5" width="111" height="30.488" x="234" y="500.147" fill="#FEFECE" filter="url(#f190crdgwhoxlj)"/><text x="241" y="520.682" fill="#000" font-family="sans-serif" font-size="14" lengthAdjust="spacing" textLength="97">PCL Converter</text><rect style="stroke:#a80036;stroke-width:1.5" width="194" height="30.488" x="359" y="25.311" fill="#FEFECE" filter="url(#f190crdgwhoxlj)"/><text x="366" y="45.846" fill="#000" font-family="sans-serif" font-size="14" lengthAdjust="spacing" textLength="180">Language Code Generator</text><rect style="stroke:#a80036;stroke-width:1.5" width="194" height="30.488" x="359" y="500.147" fill="#FEFECE" filter="url(#f190crdgwhoxlj)"/><text x="366" y="520.682" fill="#000" font-family="sans-serif" font-size="14" lengthAdjust="spacing" textLength="180">Language Code Generator</text><rect style="stroke:#a80036;stroke-width:1.5" width="105" height="30.488" x="567" y="25.311" fill="#FEFECE" filter="url(#f190crdgwhoxlj)"/><text x="574" y="45.846" fill="#000" font-family="sans-serif" font-size="14" lengthAdjust="spacing" textLength="91">Import Driver</text><rect style="stroke:#a80036;stroke-width:1.5" width="105" height="30.488" x="567" y="500.147" fill="#FEFECE" filter="url(#f190crdgwhoxlj)"/><text x="574" y="520.682" fill="#000" font-family="sans-serif" font-size="14" lengthAdjust="spacing" textLength="91">Import Driver</text><rect style="stroke:#a80036;stroke-width:1.5" width="109" height="30.488" x="754" y="25.311" fill="#FEFECE" filter="url(#f190crdgwhoxlj)"/><text x="761" y="45.846" fill="#000" font-family="sans-serif" font-size="14" lengthAdjust="spacing" textLength="95">Step Executor</text><rect style="stroke:#a80036;stroke-width:1.5" width="109" height="30.488" x="754" y="500.147" fill="#FEFECE" filter="url(#f190crdgwhoxlj)"/><text x="761" y="520.682" fill="#000" font-family="sans-serif" font-size="14" lengthAdjust="spacing" textLength="95">Step Executor</text><rect style="stroke:#a80036;stroke-width:1.5" width="138" height="30.488" x="1072.5" y="25.311" fill="#FEFECE" filter="url(#f190crdgwhoxlj)"/><text x="1079.5" y="45.846" fill="#000" font-family="sans-serif" font-size="14" lengthAdjust="spacing" textLength="124">Resource Provider</text><rect style="stroke:#a80036;stroke-width:1.5" width="138" height="30.488" x="1072.5" y="500.147" fill="#FEFECE" filter="url(#f190crdgwhoxlj)"/><text x="1079.5" y="520.682" fill="#000" font-family="sans-serif" font-size="14" lengthAdjust="spacing" textLength="124">Resource Provider</text><rect style="stroke:#a80036;stroke-width:1" width="10" height="29.311" x="286.5" y="395.215" fill="#FFF" filter="url(#f190crdgwhoxlj)"/><rect style="stroke:#a80036;stroke-width:1" width="10" height="29.311" x="453" y="453.836" fill="#FFF" filter="url(#f190crdgwhoxlj)"/><rect style="stroke:#a80036;stroke-width:1" width="10" height="34.31" x="616.5" y="92.109" fill="#FFF" filter="url(#f190crdgwhoxlj)"/><rect style="stroke:#a80036;stroke-width:1" width="10" height="210.174" x="805.5" y="126.42" fill="#FFF" filter="url(#f190crdgwhoxlj)"/><rect style="stroke:#a80036;stroke-width:1" width="10" height="29.311" x="1138.5" y="160.731" fill="#FFF" filter="url(#f190crdgwhoxlj)"/><rect style="stroke:#a80036;stroke-width:1" width="10" height="29.311" x="1138.5" y="219.352" fill="#FFF" filter="url(#f190crdgwhoxlj)"/><rect style="stroke:#a80036;stroke-width:1" width="10" height="29.311" x="1138.5" y="277.973" fill="#FFF" filter="url(#f190crdgwhoxlj)"/><polygon fill="#A80036" points="604.5 88.109 614.5 92.109 604.5 96.109 608.5 92.109" style="stroke:#a80036;stroke-width:1"/><line style="stroke:#a80036;stroke-width:1" x1="109.5" x2="610.5" y1="92.109" y2="92.109"/><text x="116.5" y="87.367" fill="#000" font-family="sans-serif" font-size="13" lengthAdjust="spacing" textLength="178">engine.Import(import specs)</text><polygon fill="#A80036" points="793.5 122.42 803.5 126.42 793.5 130.42 797.5 126.42" style="stroke:#a80036;stroke-width:1"/><line style="stroke:#a80036;stroke-width:1" x1="621.5" x2="799.5" y1="126.42" y2="126.42"/><text x="628.5" y="121.678" fill="#000" font-family="sans-serif" font-size="13" lengthAdjust="spacing" textLength="160">[]ImportStep(import spec)</text><path fill="#FBFB77" d="M436,105.1094 L436,130.1094 L607,130.1094 L607,115.1094 L597,105.1094 L436,105.1094" filter="url(#f190crdgwhoxlj)" style="stroke:#a80036;stroke-width:1"/><path fill="#FBFB77" d="M597,105.1094 L597,115.1094 L607,115.1094 L597,105.1094" style="stroke:#a80036;stroke-width:1"/><text x="442" y="122.678" fill="#000" font-family="sans-serif" font-size="13" lengthAdjust="spacing" textLength="150">All steps run in parallel.</text><polygon fill="#A80036" points="1126.5 156.731 1136.5 160.731 1126.5 164.731 1130.5 160.731" style="stroke:#a80036;stroke-width:1"/><line style="stroke:#a80036;stroke-width:1" x1="815.5" x2="1132.5" y1="160.731" y2="160.731"/><text x="822.5" y="155.988" fill="#000" font-family="sans-serif" font-size="13" lengthAdjust="spacing" textLength="135">ReadRequest(type, id)</text><polygon fill="#A80036" points="826.5 186.041 816.5 190.041 826.5 194.041 822.5 190.041" style="stroke:#a80036;stroke-width:1"/><line style="stroke:#a80036;stroke-width:1" x1="820.5" x2="1142.5" y1="190.041" y2="190.041"/><text x="832.5" y="185.299" fill="#000" font-family="sans-serif" font-size="13" lengthAdjust="spacing" textLength="275">ReadResponse(current inputs, current state)</text><polygon fill="#A80036" points="1126.5 215.352 1136.5 219.352 1126.5 223.352 1130.5 219.352" style="stroke:#a80036;stroke-width:1"/><line style="stroke:#a80036;stroke-width:1" x1="815.5" x2="1132.5" y1="219.352" y2="219.352"/><text x="822.5" y="214.609" fill="#000" font-family="sans-serif" font-size="13" lengthAdjust="spacing" textLength="269">CheckRequest(type, inputs, current inputs)</text><polygon fill="#A80036" points="826.5 244.662 816.5 248.662 826.5 252.662 822.5 248.662" style="stroke:#a80036;stroke-width:1"/><line style="stroke:#a80036;stroke-width:1" x1="820.5" x2="1142.5" y1="248.662" y2="248.662"/><text x="832.5" y="243.92" fill="#000" font-family="sans-serif" font-size="13" lengthAdjust="spacing" textLength="205">CheckResponse(inputs&apos;, failures)</text><polygon fill="#A80036" points="1126.5 273.973 1136.5 277.973 1126.5 281.973 1130.5 277.973" style="stroke:#a80036;stroke-width:1"/><line style="stroke:#a80036;stroke-width:1" x1="815.5" x2="1132.5" y1="277.973" y2="277.973"/><text x="822.5" y="273.231" fill="#000" font-family="sans-serif" font-size="13" lengthAdjust="spacing" textLength="304">DiffRequest(type, inputs&apos;, current state, options)</text><polygon fill="#A80036" points="826.5 303.283 816.5 307.283 826.5 311.283 822.5 307.283" style="stroke:#a80036;stroke-width:1"/><line style="stroke:#a80036;stroke-width:1" x1="820.5" x2="1142.5" y1="307.283" y2="307.283"/><text x="832.5" y="302.541" fill="#000" font-family="sans-serif" font-size="13" lengthAdjust="spacing" textLength="121">DiffResponse(diffs)</text><polygon fill="#A80036" points="632.5 332.594 622.5 336.594 632.5 340.594 628.5 336.594" style="stroke:#a80036;stroke-width:1"/><line style="stroke:#a80036;stroke-width:1" x1="626.5" x2="809.5" y1="336.594" y2="336.594"/><text x="638.5" y="331.852" fill="#000" font-family="sans-serif" font-size="13" lengthAdjust="spacing" textLength="126">done(current states)</text><polygon fill="#A80036" points="120.5 361.904 110.5 365.904 120.5 369.904 116.5 365.904" style="stroke:#a80036;stroke-width:1"/><line style="stroke:#a80036;stroke-width:1" x1="114.5" x2="620.5" y1="365.904" y2="365.904"/><text x="126.5" y="361.162" fill="#000" font-family="sans-serif" font-size="13" lengthAdjust="spacing" textLength="126">done(current states)</text><polygon fill="#A80036" points="274.5 391.215 284.5 395.215 274.5 399.215 278.5 395.215" style="stroke:#a80036;stroke-width:1"/><line style="stroke:#a80036;stroke-width:1" x1="109.5" x2="280.5" y1="395.215" y2="395.215"/><text x="116.5" y="390.473" fill="#000" font-family="sans-serif" font-size="13" lengthAdjust="spacing" textLength="142">convert(current states)</text><polygon fill="#A80036" points="120.5 420.525 110.5 424.525 120.5 428.525 116.5 424.525" style="stroke:#a80036;stroke-width:1"/><line style="stroke:#a80036;stroke-width:1" x1="114.5" x2="290.5" y1="424.525" y2="424.525"/><text x="126.5" y="419.783" fill="#000" font-family="sans-serif" font-size="13" lengthAdjust="spacing" textLength="153">PCL resource definitions</text><polygon fill="#A80036" points="441 449.836 451 453.836 441 457.836 445 453.836" style="stroke:#a80036;stroke-width:1"/><line style="stroke:#a80036;stroke-width:1" x1="109.5" x2="447" y1="453.836" y2="453.836"/><text x="116.5" y="449.094" fill="#000" font-family="sans-serif" font-size="13" lengthAdjust="spacing" textLength="267">generateProgram(PCL resource definitions)</text><polygon fill="#A80036" points="120.5 479.147 110.5 483.147 120.5 487.147 116.5 483.147" style="stroke:#a80036;stroke-width:1"/><line style="stroke:#a80036;stroke-width:1" x1="114.5" x2="457" y1="483.147" y2="483.147"/><text x="126.5" y="478.404" fill="#000" font-family="sans-serif" font-size="13" lengthAdjust="spacing" textLength="193">Generated resource definitions</text></g></svg>