<svg xmlns="http://www.w3.org/2000/svg" xmlns:xlink="http://www.w3.org/1999/xlink" width="837" height="379" contentScriptType="application/ecmascript" contentStyleType="text/css" style="width:837px;height:379px;background:#fff" preserveAspectRatio="none" version="1.1" viewBox="0 0 837 379" zoomAndPan="magnify"><defs><filter id="f19xh40rheasqw" width="300%" height="300%" x="-1" y="-1"><feGaussianBlur result="blurOut" stdDeviation="2"/><feColorMatrix in="blurOut" result="blurOut2" type="matrix" values="0 0 0 0 0 0 0 0 0 0 0 0 0 0 0 0 0 0 .4 0"/><feOffset dx="4" dy="4" in="blurOut2" result="blurOut3"/><feBlend in="SourceGraphic" in2="blurOut3" mode="normal"/></filter></defs><g><polygon fill="#FFF" points="274 16 284 6 533 6 533 110 523 120 274 120 274 16" filter="url(#f19xh40rheasqw)" style="stroke:#000;stroke-width:1.5"/><line style="stroke:#000;stroke-width:1.5" x1="523" x2="533" y1="16" y2="6"/><line style="stroke:#000;stroke-width:1.5" x1="274" x2="523" y1="16" y2="16"/><line style="stroke:#000;stroke-width:1.5" x1="523" x2="523" y1="16" y2="120"/><text x="340" y="32.535" fill="#000" font-family="sans-serif" font-size="14" font-weight="bold" lengthAdjust="spacing" textLength="119">Language Plugin</text><polygon fill="#FFF" points="143 154 153 144 820 144 820 236 810 246 143 246 143 154" filter="url(#f19xh40rheasqw)" style="stroke:#000;stroke-width:1.5"/><line style="stroke:#000;stroke-width:1.5" x1="810" x2="820" y1="154" y2="144"/><line style="stroke:#000;stroke-width:1.5" x1="143" x2="810" y1="154" y2="154"/><line style="stroke:#000;stroke-width:1.5" x1="810" x2="810" y1="154" y2="246"/><text x="438" y="170.535" fill="#000" font-family="sans-serif" font-size="14" font-weight="bold" lengthAdjust="spacing" textLength="79">Pulumi CLI</text><polygon fill="#FFF" points="16 280 26 270 718 270 718 362 708 372 16 372 16 280" filter="url(#f19xh40rheasqw)" style="stroke:#000;stroke-width:1.5"/><line style="stroke:#000;stroke-width:1.5" x1="708" x2="718" y1="280" y2="270"/><line style="stroke:#000;stroke-width:1.5" x1="16" x2="708" y1="280" y2="280"/><line style="stroke:#000;stroke-width:1.5" x1="708" x2="708" y1="280" y2="372"/><text x="294" y="296.535" fill="#000" font-family="sans-serif" font-size="14" font-weight="bold" lengthAdjust="spacing" textLength="138">Resource Providers</text><ellipse cx="490" cy="75" fill="#FEFECE" filter="url(#f19xh40rheasqw)" rx="8" ry="8" style="stroke:#a80036;stroke-width:1.5"/><text x="472" y="105.535" fill="#000" font-family="sans-serif" font-size="14" lengthAdjust="spacing" textLength="36">gRPC</text><rect style="stroke:#a80036;stroke-width:1.5" width="138" height="46.488" x="290" y="52" fill="#FEFECE" filter="url(#f19xh40rheasqw)"/><rect style="stroke:#a80036;stroke-width:1.5" width="15" height="10" x="408" y="57" fill="#FEFECE"/><rect style="stroke:#a80036;stroke-width:1.5" width="4" height="2" x="406" y="59" fill="#FEFECE"/><rect style="stroke:#a80036;stroke-width:1.5" width="4" height="2" x="406" y="63" fill="#FEFECE"/><text x="305" y="85.535" fill="#000" font-family="sans-serif" font-size="14" lengthAdjust="spacing" textLength="98">Language SDK</text><ellipse cx="359" cy="207" fill="#FEFECE" filter="url(#f19xh40rheasqw)" rx="8" ry="8" style="stroke:#a80036;stroke-width:1.5"/><text x="341" y="237.535" fill="#000" font-family="sans-serif" font-size="14" lengthAdjust="spacing" textLength="36">gRPC</text><rect style="stroke:#a80036;stroke-width:1.5" width="173" height="46.488" x="403.5" y="184" fill="#FEFECE" filter="url(#f19xh40rheasqw)"/><rect style="stroke:#a80036;stroke-width:1.5" width="15" height="10" x="556.5" y="189" fill="#FEFECE"/><rect style="stroke:#a80036;stroke-width:1.5" width="4" height="2" x="554.5" y="191" fill="#FEFECE"/><rect style="stroke:#a80036;stroke-width:1.5" width="4" height="2" x="554.5" y="195" fill="#FEFECE"/><text x="418.5" y="217.535" fill="#000" font-family="sans-serif" font-size="14" lengthAdjust="spacing" textLength="133">Deployment engine</text><rect style="stroke:#a80036;stroke-width:1.5" width="192" height="46.488" x="612" y="184" fill="#FEFECE" filter="url(#f19xh40rheasqw)"/><rect style="stroke:#a80036;stroke-width:1.5" width="15" height="10" x="784" y="189" fill="#FEFECE"/><rect style="stroke:#a80036;stroke-width:1.5" width="4" height="2" x="782" y="191" fill="#FEFECE"/><rect style="stroke:#a80036;stroke-width:1.5" width="4" height="2" x="782" y="195" fill="#FEFECE"/><text x="627" y="217.535" fill="#000" font-family="sans-serif" font-size="14" lengthAdjust="spacing" textLength="152">State storage backend</text><rect style="stroke:#a80036;stroke-width:1.5" width="155" height="46.488" x="159.5" y="184" fill="#FEFECE" filter="url(#f19xh40rheasqw)"/><rect style="stroke:#a80036;stroke-width:1.5" width="15" height="10" x="294.5" y="189" fill="#FEFECE"/><rect style="stroke:#a80036;stroke-width:1.5" width="4" height="2" x="292.5" y="191" fill="#FEFECE"/><rect style="stroke:#a80036;stroke-width:1.5" width="4" height="2" x="292.5" y="195" fill="#FEFECE"/><text x="174.5" y="217.535" fill="#000" font-family="sans-serif" font-size="14" lengthAdjust="spacing" textLength="115">Code generators</text><ellipse cx="506" cy="333" fill="#FEFECE" filter="url(#f19xh40rheasqw)" rx="8" ry="8" style="stroke:#a80036;stroke-width:1.5"/><text x="488" y="363.535" fill="#000" font-family="sans-serif" font-size="14" lengthAdjust="spacing" textLength="36">gRPC</text><rect style="stroke:#a80036;stroke-width:1.5" width="159" height="46.488" x="32.5" y="310" fill="#FEFECE" filter="url(#f19xh40rheasqw)"/><rect style="stroke:#a80036;stroke-width:1.5" width="15" height="10" x="171.5" y="315" fill="#FEFECE"/><rect style="stroke:#a80036;stroke-width:1.5" width="4" height="2" x="169.5" y="317" fill="#FEFECE"/><rect style="stroke:#a80036;stroke-width:1.5" width="4" height="2" x="169.5" y="321" fill="#FEFECE"/><text x="47.5" y="343.535" fill="#000" font-family="sans-serif" font-size="14" lengthAdjust="spacing" textLength="119">Package schemas</text><rect style="stroke:#a80036;stroke-width:1.5" width="235" height="46.488" x="226.5" y="310" fill="#FEFECE" filter="url(#f19xh40rheasqw)"/><rect style="stroke:#a80036;stroke-width:1.5" width="15" height="10" x="441.5" y="315" fill="#FEFECE"/><rect style="stroke:#a80036;stroke-width:1.5" width="4" height="2" x="439.5" y="317" fill="#FEFECE"/><rect style="stroke:#a80036;stroke-width:1.5" width="4" height="2" x="439.5" y="321" fill="#FEFECE"/><text x="241.5" y="343.535" fill="#000" font-family="sans-serif" font-size="14" lengthAdjust="spacing" textLength="195">Multi-language components</text><rect style="stroke:#a80036;stroke-width:1.5" width="152" height="46.488" x="550" y="310" fill="#FEFECE" filter="url(#f19xh40rheasqw)"/><rect style="stroke:#a80036;stroke-width:1.5" width="15" height="10" x="682" y="315" fill="#FEFECE"/><rect style="stroke:#a80036;stroke-width:1.5" width="4" height="2" x="680" y="317" fill="#FEFECE"/><rect style="stroke:#a80036;stroke-width:1.5" width="4" height="2" x="680" y="321" fill="#FEFECE"/><text x="565" y="343.535" fill="#000" font-family="sans-serif" font-size="14" lengthAdjust="spacing" textLength="112">Cloud resources</text><path id="resmon-engine" fill="none" d="M368.21,207 C379.95,207 391.68,207 403.42,207" style="stroke:#a80036;stroke-width:1"/><path id="sdk-to-resmon" fill="none" d="M359,98.05 C359,125.17 359,170.32 359,192.66" style="stroke:#a80036;stroke-width:1"/><polygon fill="#A80036" points="359 197.82 363 188.82 359 192.82 355 188.82 359 197.82" style="stroke:#a80036;stroke-width:1"/><path id="langhost-backto-engine" fill="none" d="M490,89.29 C490,111.61 490,156.83 490,183.97" style="stroke:#a80036;stroke-width:1"/><polygon fill="#A80036" points="490 84.13 486 93.13 490 89.13 494 93.13 490 84.13" style="stroke:#a80036;stroke-width:1"/><path id="engine-to-backend" fill="none" d="M576.86,207 C586.82,207 596.78,207 606.74,207" style="stroke:#a80036;stroke-width:1"/><polygon fill="#A80036" points="611.95 207 602.95 203 606.95 207 602.95 211 611.95 207" style="stroke:#a80036;stroke-width:1"/><path id="provider-mlcs" fill="none" d="M496.66,333 C485.01,333 473.35,333 461.7,333" style="stroke:#a80036;stroke-width:1"/><path id="provider-resources" fill="none" d="M515.38,333 C526.9,333 538.42,333 549.95,333" style="stroke:#a80036;stroke-width:1"/><path id="engine-to-provider" fill="none" d="M492.86,230.17 C496.18,255.88 501.54,297.43 504.27,318.63" style="stroke:#a80036;stroke-width:1"/><polygon fill="#A80036" points="504.94 323.8 507.749 314.36 504.297 318.841 499.816 315.389 504.94 323.8" style="stroke:#a80036;stroke-width:1"/><path id="resmon-backto-mlcs" fill="none" d="M357.39,221.29 C354.83,242.44 349.81,283.98 346.69,309.72" style="stroke:#a80036;stroke-width:1"/><polygon fill="#A80036" points="358.02 216.14 352.967 224.594 357.419 221.104 360.91 225.555 358.02 216.14" style="stroke:#a80036;stroke-width:1"/></g></svg>