<svg xmlns="http://www.w3.org/2000/svg" xmlns:xlink="http://www.w3.org/1999/xlink" width="1401" height="473" contentScriptType="application/ecmascript" contentStyleType="text/css" style="width:1401px;height:473px;background:#fff" preserveAspectRatio="none" version="1.1" viewBox="0 0 1401 473" zoomAndPan="magnify"><defs><filter id="frt0s89gdpm1r" width="300%" height="300%" x="-1" y="-1"><feGaussianBlur result="blurOut" stdDeviation="2"/><feColorMatrix in="blurOut" result="blurOut2" type="matrix" values="0 0 0 0 0 0 0 0 0 0 0 0 0 0 0 0 0 0 .4 0"/><feOffset dx="4" dy="4" in="blurOut2" result="blurOut3"/><feBlend in="SourceGraphic" in2="blurOut3" mode="normal"/></filter></defs><g><rect style="stroke:#a80036;stroke-width:1" width="756" height="461.014" x="352.5" y="6" fill="#DDD"/><text x="707" y="18.568" fill="#000" font-family="sans-serif" font-size="13" font-weight="bold" lengthAdjust="spacing" textLength="47">Engine</text><rect style="stroke:#a80036;stroke-width:1" width="10" height="318.416" x="421" y="92.109" fill="#FFF" filter="url(#frt0s89gdpm1r)"/><rect style="stroke:#a80036;stroke-width:1" width="10" height="159.208" x="773" y="121.42" fill="#FFF" filter="url(#frt0s89gdpm1r)"/><rect style="stroke:#a80036;stroke-width:1" width="10" height="100.587" x="1043" y="280.628" fill="#FFF" filter="url(#frt0s89gdpm1r)"/><rect style="stroke:#a80036;stroke-width:1" width="10" height="29.311" x="1315" y="150.731" fill="#FFF" filter="url(#frt0s89gdpm1r)"/><rect style="stroke:#a80036;stroke-width:1" width="10" height="29.311" x="1315" y="209.352" fill="#FFF" filter="url(#frt0s89gdpm1r)"/><rect style="stroke:#a80036;stroke-width:1" width="10" height="29.311" x="1315" y="322.594" fill="#FFF" filter="url(#frt0s89gdpm1r)"/><line style="stroke:#a80036;stroke-width:1;stroke-dasharray:5,5" x1="63" x2="63" y1="60.799" y2="428.525"/><line style="stroke:#a80036;stroke-width:1;stroke-dasharray:5,5" x1="425.5" x2="425.5" y1="60.799" y2="428.525"/><line style="stroke:#a80036;stroke-width:1;stroke-dasharray:5,5" x1="777.5" x2="777.5" y1="60.799" y2="428.525"/><line style="stroke:#a80036;stroke-width:1;stroke-dasharray:5,5" x1="1047.5" x2="1047.5" y1="60.799" y2="428.525"/><line style="stroke:#a80036;stroke-width:1;stroke-dasharray:5,5" x1="1320" x2="1320" y1="60.799" y2="428.525"/><rect style="stroke:#a80036;stroke-width:1.5" width="112" height="30.488" x="5" y="25.311" fill="#FEFECE" filter="url(#frt0s89gdpm1r)"/><text x="12" y="45.846" fill="#000" font-family="sans-serif" font-size="14" lengthAdjust="spacing" textLength="98">Language SDK</text><rect style="stroke:#a80036;stroke-width:1.5" width="112" height="30.488" x="5" y="427.525" fill="#FEFECE" filter="url(#frt0s89gdpm1r)"/><text x="12" y="448.06" fill="#000" font-family="sans-serif" font-size="14" lengthAdjust="spacing" textLength="98">Language SDK</text><rect style="stroke:#a80036;stroke-width:1.5" width="135" height="30.488" x="356.5" y="25.311" fill="#FEFECE" filter="url(#frt0s89gdpm1r)"/><text x="363.5" y="45.846" fill="#000" font-family="sans-serif" font-size="14" lengthAdjust="spacing" textLength="121">Resource Monitor</text><rect style="stroke:#a80036;stroke-width:1.5" width="135" height="30.488" x="356.5" y="427.525" fill="#FEFECE" filter="url(#frt0s89gdpm1r)"/><text x="363.5" y="448.06" fill="#000" font-family="sans-serif" font-size="14" lengthAdjust="spacing" textLength="121">Resource Monitor</text><rect style="stroke:#a80036;stroke-width:1.5" width="117" height="30.488" x="717.5" y="25.311" fill="#FEFECE" filter="url(#frt0s89gdpm1r)"/><text x="724.5" y="45.846" fill="#000" font-family="sans-serif" font-size="14" lengthAdjust="spacing" textLength="103">Step Generator</text><rect style="stroke:#a80036;stroke-width:1.5" width="117" height="30.488" x="717.5" y="427.525" fill="#FEFECE" filter="url(#frt0s89gdpm1r)"/><text x="724.5" y="448.06" fill="#000" font-family="sans-serif" font-size="14" lengthAdjust="spacing" textLength="103">Step Generator</text><rect style="stroke:#a80036;stroke-width:1.5" width="109" height="30.488" x="991.5" y="25.311" fill="#FEFECE" filter="url(#frt0s89gdpm1r)"/><text x="998.5" y="45.846" fill="#000" font-family="sans-serif" font-size="14" lengthAdjust="spacing" textLength="95">Step Executor</text><rect style="stroke:#a80036;stroke-width:1.5" width="109" height="30.488" x="991.5" y="427.525" fill="#FEFECE" filter="url(#frt0s89gdpm1r)"/><text x="998.5" y="448.06" fill="#000" font-family="sans-serif" font-size="14" lengthAdjust="spacing" textLength="95">Step Executor</text><rect style="stroke:#a80036;stroke-width:1.5" width="138" height="30.488" x="1249" y="25.311" fill="#FEFECE" filter="url(#frt0s89gdpm1r)"/><text x="1256" y="45.846" fill="#000" font-family="sans-serif" font-size="14" lengthAdjust="spacing" textLength="124">Resource Provider</text><rect style="stroke:#a80036;stroke-width:1.5" width="138" height="30.488" x="1249" y="427.525" fill="#FEFECE" filter="url(#frt0s89gdpm1r)"/><text x="1256" y="448.06" fill="#000" font-family="sans-serif" font-size="14" lengthAdjust="spacing" textLength="124">Resource Provider</text><rect style="stroke:#a80036;stroke-width:1" width="10" height="318.416" x="421" y="92.109" fill="#FFF" filter="url(#frt0s89gdpm1r)"/><rect style="stroke:#a80036;stroke-width:1" width="10" height="159.208" x="773" y="121.42" fill="#FFF" filter="url(#frt0s89gdpm1r)"/><rect style="stroke:#a80036;stroke-width:1" width="10" height="100.587" x="1043" y="280.628" fill="#FFF" filter="url(#frt0s89gdpm1r)"/><rect style="stroke:#a80036;stroke-width:1" width="10" height="29.311" x="1315" y="150.731" fill="#FFF" filter="url(#frt0s89gdpm1r)"/><rect style="stroke:#a80036;stroke-width:1" width="10" height="29.311" x="1315" y="209.352" fill="#FFF" filter="url(#frt0s89gdpm1r)"/><rect style="stroke:#a80036;stroke-width:1" width="10" height="29.311" x="1315" y="322.594" fill="#FFF" filter="url(#frt0s89gdpm1r)"/><polygon fill="#A80036" points="409 88.109 419 92.109 409 96.109 413 92.109" style="stroke:#a80036;stroke-width:1"/><line style="stroke:#a80036;stroke-width:1" x1="63" x2="415" y1="92.109" y2="92.109"/><text x="70" y="87.367" fill="#000" font-family="sans-serif" font-size="13" lengthAdjust="spacing" textLength="339">RegisterResourceRequest(type, name, inputs, options)</text><polygon fill="#A80036" points="761 117.42 771 121.42 761 125.42 765 121.42" style="stroke:#a80036;stroke-width:1"/><line style="stroke:#a80036;stroke-width:1" x1="431" x2="767" y1="121.42" y2="121.42"/><text x="438" y="116.678" fill="#000" font-family="sans-serif" font-size="13" lengthAdjust="spacing" textLength="323">RegisterResourceEvent(type, name, inputs, options)</text><polygon fill="#A80036" points="1303 146.731 1313 150.731 1303 154.731 1307 150.731" style="stroke:#a80036;stroke-width:1"/><line style="stroke:#a80036;stroke-width:1" x1="783" x2="1309" y1="150.731" y2="150.731"/><text x="790" y="145.988" fill="#000" font-family="sans-serif" font-size="13" lengthAdjust="spacing" textLength="244">CheckRequest(type, inputs, old inputs)</text><polygon fill="#A80036" points="794 176.041 784 180.041 794 184.041 790 180.041" style="stroke:#a80036;stroke-width:1"/><line style="stroke:#a80036;stroke-width:1" x1="788" x2="1319" y1="180.041" y2="180.041"/><text x="800" y="175.299" fill="#000" font-family="sans-serif" font-size="13" lengthAdjust="spacing" textLength="205">CheckResponse(inputs&apos;, failures)</text><polygon fill="#A80036" points="1303 205.352 1313 209.352 1303 213.352 1307 209.352" style="stroke:#a80036;stroke-width:1"/><line style="stroke:#a80036;stroke-width:1" x1="783" x2="1309" y1="209.352" y2="209.352"/><text x="790" y="204.609" fill="#000" font-family="sans-serif" font-size="13" lengthAdjust="spacing" textLength="279">DiffRequest(type, inputs&apos;, old state, options)</text><polygon fill="#A80036" points="794 234.662 784 238.662 794 242.662 790 238.662" style="stroke:#a80036;stroke-width:1"/><line style="stroke:#a80036;stroke-width:1" x1="788" x2="1319" y1="238.662" y2="238.662"/><text x="800" y="233.92" fill="#000" font-family="sans-serif" font-size="13" lengthAdjust="spacing" textLength="121">DiffResponse(diffs)</text><polygon fill="#A80036" points="1031 276.628 1041 280.628 1031 284.628 1035 280.628" style="stroke:#a80036;stroke-width:1"/><line style="stroke:#a80036;stroke-width:1" x1="778" x2="1037" y1="280.628" y2="280.628"/><text x="785" y="275.886" fill="#000" font-family="sans-serif" font-size="13" lengthAdjust="spacing" textLength="241">UpdateStep(inputs&apos;, old state, options)</text><path fill="#FBFB77" d="M375,251.6621 L375,291.6621 L764,291.6621 L764,261.6621 L754,251.6621 L375,251.6621" filter="url(#frt0s89gdpm1r)" style="stroke:#a80036;stroke-width:1"/><path fill="#FBFB77" d="M754,251.6621 L754,261.6621 L764,261.6621 L754,251.6621" style="stroke:#a80036;stroke-width:1"/><text x="381" y="269.231" fill="#000" font-family="sans-serif" font-size="13" lengthAdjust="spacing" textLength="357">This is fire-and-forget on the part of the step generator.</text><text x="381" y="284.541" fill="#000" font-family="sans-serif" font-size="13" lengthAdjust="spacing" textLength="368">The step will run in parallel with steps for other resources.</text><polygon fill="#A80036" points="1303 318.594 1313 322.594 1303 326.594 1307 322.594" style="stroke:#a80036;stroke-width:1"/><line style="stroke:#a80036;stroke-width:1" x1="1053" x2="1309" y1="322.594" y2="322.594"/><text x="1060" y="317.852" fill="#000" font-family="sans-serif" font-size="13" lengthAdjust="spacing" textLength="243">UpdateRequest(type, inputs&apos;, old state)</text><polygon fill="#A80036" points="1064 347.904 1054 351.904 1064 355.904 1060 351.904" style="stroke:#a80036;stroke-width:1"/><line style="stroke:#a80036;stroke-width:1" x1="1058" x2="1319" y1="351.904" y2="351.904"/><text x="1070" y="347.162" fill="#000" font-family="sans-serif" font-size="13" lengthAdjust="spacing" textLength="172">UpdateResponse(new state)</text><polygon fill="#A80036" points="442 377.215 432 381.215 442 385.215 438 381.215" style="stroke:#a80036;stroke-width:1"/><line style="stroke:#a80036;stroke-width:1" x1="436" x2="1047" y1="381.215" y2="381.215"/><text x="448" y="376.473" fill="#000" font-family="sans-serif" font-size="13" lengthAdjust="spacing" textLength="99">done(new state)</text><polygon fill="#A80036" points="74 406.525 64 410.525 74 414.525 70 410.525" style="stroke:#a80036;stroke-width:1"/><line style="stroke:#a80036;stroke-width:1" x1="68" x2="425" y1="410.525" y2="410.525"/><text x="80" y="405.783" fill="#000" font-family="sans-serif" font-size="13" lengthAdjust="spacing" textLength="287">RegisterResourceResponse(urn, ID, new state)</text></g></svg>