<svg xmlns="http://www.w3.org/2000/svg" xmlns:xlink="http://www.w3.org/1999/xlink" width="1385" height="795" contentScriptType="application/ecmascript" contentStyleType="text/css" style="width:1385px;height:795px;background:#fff" preserveAspectRatio="none" version="1.1" viewBox="0 0 1385 795" zoomAndPan="magnify"><defs><filter id="f1ht2b1gslamyn" width="300%" height="300%" x="-1" y="-1"><feGaussianBlur result="blurOut" stdDeviation="2"/><feColorMatrix in="blurOut" result="blurOut2" type="matrix" values="0 0 0 0 0 0 0 0 0 0 0 0 0 0 0 0 0 0 .4 0"/><feOffset dx="4" dy="4" in="blurOut2" result="blurOut3"/><feBlend in="SourceGraphic" in2="blurOut3" mode="normal"/></filter></defs><g><ellipse cx="453" cy="16" fill="#000" filter="url(#f1ht2b1gslamyn)" rx="10" ry="10" style="stroke:none;stroke-width:1"/><rect style="stroke:#a80036;stroke-width:1.5" width="256" height="150.488" x="7" y="368" fill="#FEFECE" filter="url(#f1ht2b1gslamyn)" rx="12.5" ry="12.5"/><rect style="stroke:#fff;stroke-width:1" width="250" height="118" x="10" y="397.488" fill="#FFF" rx="12.5" ry="12.5"/><line style="stroke:#a80036;stroke-width:1.5" x1="7" x2="263" y1="394.488" y2="394.488"/><text x="118" y="386.535" fill="#000" font-family="sans-serif" font-size="14" lengthAdjust="spacing" textLength="34">Read</text><rect style="stroke:#a80036;stroke-width:1.5" width="228" height="40" x="19" y="406.488" fill="#FEFECE" filter="url(#f1ht2b1gslamyn)" rx="12.5" ry="12.5"/><text x="24" y="431.779" fill="#000" font-family="sans-serif" font-size="14" lengthAdjust="spacing" textLength="218">Read(reg.URN, reg.ID, reg.State)</text><ellipse cx="133" cy="492.488" filter="url(#f1ht2b1gslamyn)" rx="10" ry="10" style="stroke:#000;stroke-width:1;fill:none"/><ellipse cx="133.5" cy="492.988" fill="#000" rx="6" ry="6" style="stroke:none;stroke-width:1"/><path id="read_read-to-*end*Read" fill="none" d="M133,446.6883 C133,456.4483 133,468.1083 133,477.0783" style="stroke:#a80036;stroke-width:1"/><polygon fill="#A80036" points="133 482.288 137 473.288 133 477.288 129 473.288 133 482.288" style="stroke:#a80036;stroke-width:1"/><rect style="stroke:#a80036;stroke-width:1.5" width="310" height="302.488" x="298" y="292" fill="#FEFECE" filter="url(#f1ht2b1gslamyn)" rx="12.5" ry="12.5"/><rect style="stroke:#fff;stroke-width:1" width="304" height="270" x="301" y="321.488" fill="#FFF" rx="12.5" ry="12.5"/><line style="stroke:#a80036;stroke-width:1.5" x1="298" x2="608" y1="318.488" y2="318.488"/><text x="430" y="310.535" fill="#000" font-family="sans-serif" font-size="14" lengthAdjust="spacing" textLength="46">Import</text><rect style="stroke:#a80036;stroke-width:1.5" width="159" height="40" x="371.5" y="330.488" fill="#FEFECE" filter="url(#f1ht2b1gslamyn)" rx="12.5" ry="12.5"/><text x="376.5" y="355.779" fill="#000" font-family="sans-serif" font-size="14" lengthAdjust="spacing" textLength="149">Read(reg.URN, reg.ID)</text><rect style="stroke:#a80036;stroke-width:1.5" width="282" height="40" x="310" y="406.488" fill="#FEFECE" filter="url(#f1ht2b1gslamyn)" rx="12.5" ry="12.5"/><text x="315" y="431.779" fill="#000" font-family="sans-serif" font-size="14" lengthAdjust="spacing" textLength="272">Check(reg.URN, reg.Inputs, read.Inputs)</text><rect style="stroke:#a80036;stroke-width:1.5" width="271" height="40" x="315.5" y="482.488" fill="#FEFECE" filter="url(#f1ht2b1gslamyn)" rx="12.5" ry="12.5"/><text x="320.5" y="507.779" fill="#000" font-family="sans-serif" font-size="14" lengthAdjust="spacing" textLength="261">Diff(reg.URN, check.Inputs, read.State)</text><ellipse cx="451" cy="568.488" filter="url(#f1ht2b1gslamyn)" rx="10" ry="10" style="stroke:#000;stroke-width:1;fill:none"/><ellipse cx="451.5" cy="568.988" fill="#000" rx="6" ry="6" style="stroke:none;stroke-width:1"/><path id="import_read-to-import_check" fill="none" d="M451,370.5483 C451,379.8783 451,391.2283 451,401.1783" style="stroke:#a80036;stroke-width:1"/><polygon fill="#A80036" points="451 406.238 455 397.238 451 401.238 447 397.238 451 406.238" style="stroke:#a80036;stroke-width:1"/><path id="import_check-to-import_diff" fill="none" d="M451,446.5483 C451,455.8783 451,467.2283 451,477.1783" style="stroke:#a80036;stroke-width:1"/><polygon fill="#A80036" points="451 482.238 455 473.238 451 477.238 447 473.238 451 482.238" style="stroke:#a80036;stroke-width:1"/><path id="import_diff-to-*end*Import" fill="none" d="M451,522.6883 C451,532.4483 451,544.1083 451,553.0783" style="stroke:#a80036;stroke-width:1"/><polygon fill="#A80036" points="451 558.288 455 549.288 451 553.288 447 549.288 451 558.288" style="stroke:#a80036;stroke-width:1"/><rect style="stroke:#a80036;stroke-width:1.5" width="730" height="680.488" x="643" y="103" fill="#FEFECE" filter="url(#f1ht2b1gslamyn)" rx="12.5" ry="12.5"/><rect style="stroke:#fff;stroke-width:1" width="724" height="648" x="646" y="132.488" fill="#FFF" rx="12.5" ry="12.5"/><line style="stroke:#a80036;stroke-width:1.5" x1="643" x2="1373" y1="129.488" y2="129.488"/><text x="981" y="121.535" fill="#000" font-family="sans-serif" font-size="14" lengthAdjust="spacing" textLength="54">Manage</text><rect style="stroke:#a80036;stroke-width:1.5" width="281" height="40" x="673" y="141.488" fill="#FEFECE" filter="url(#f1ht2b1gslamyn)" rx="12.5" ry="12.5"/><text x="678" y="166.779" fill="#000" font-family="sans-serif" font-size="14" lengthAdjust="spacing" textLength="271">Check(reg.URN, reg.Inputs, last?.Inputs)</text><rect style="stroke:#a80036;stroke-width:1.5" width="215" height="40" x="655" y="292.488" fill="#FEFECE" filter="url(#f1ht2b1gslamyn)" rx="12.5" ry="12.5"/><text x="660" y="317.779" fill="#000" font-family="sans-serif" font-size="14" lengthAdjust="spacing" textLength="205">Create(reg.URN, check.Inputs)</text><rect style="stroke:#a80036;stroke-width:1.5" width="314" height="40" x="790.5" y="234.488" fill="#FEFECE" filter="url(#f1ht2b1gslamyn)" rx="12.5" ry="12.5"/><text x="795.5" y="259.779" fill="#000" font-family="sans-serif" font-size="14" lengthAdjust="spacing" textLength="304">Diff(reg.URN, check.Inputs, last.ID, last.State)</text><rect style="stroke:#a80036;stroke-width:1.5" width="245" height="40" x="778" y="408.488" fill="#FEFECE" filter="url(#f1ht2b1gslamyn)" rx="12.5" ry="12.5"/><text x="783" y="433.779" fill="#000" font-family="sans-serif" font-size="14" lengthAdjust="spacing" textLength="235">Update(reg.URN, last.ID, last.State)</text><rect style="stroke:#a80036;stroke-width:1.5" width="196" height="40" x="948.5" y="350.488" fill="#FEFECE" filter="url(#f1ht2b1gslamyn)" rx="12.5" ry="12.5"/><text x="953.5" y="375.779" fill="#000" font-family="sans-serif" font-size="14" lengthAdjust="spacing" textLength="186">Check(reg.URN, reg.Inputs)</text><rect style="stroke:#a80036;stroke-width:1.5" width="199" height="40" x="932" y="466.488" fill="#FEFECE" filter="url(#f1ht2b1gslamyn)" rx="12.5" ry="12.5"/><text x="937" y="491.779" fill="#000" font-family="sans-serif" font-size="14" lengthAdjust="spacing" textLength="189">Create(reg.URN, reg.Inputs)</text><g id="Manage.manage_replace_delete_after_create"><rect style="stroke:#a80036;stroke-width:1.5" width="391" height="50.621" x="832" y="601.488" fill="#FEFECE" filter="url(#f1ht2b1gslamyn)" rx="12.5" ry="12.5"/><line style="stroke:#a80036;stroke-width:1.5" x1="832" x2="1223" y1="627.977" y2="627.977"/><text x="913" y="620.023" fill="#000" font-family="sans-serif" font-size="14" lengthAdjust="spacing" textLength="229">Delete(reg.URN, last.ID, last.State)</text><text x="837" y="644.578" fill="#000" font-family="sans-serif" font-size="12" lengthAdjust="spacing" textLength="371">note that this step happens once the Pulumi program has exited</text></g><rect style="stroke:#a80036;stroke-width:1.5" width="138" height="40" x="1161.5" y="466.488" fill="#FEFECE" filter="url(#f1ht2b1gslamyn)" rx="12.5" ry="12.5"/><text x="1166.5" y="491.779" fill="#000" font-family="sans-serif" font-size="14" lengthAdjust="spacing" textLength="128">Delete dependents</text><rect style="stroke:#a80036;stroke-width:1.5" width="239" height="40" x="1118" y="543.488" fill="#FEFECE" filter="url(#f1ht2b1gslamyn)" rx="12.5" ry="12.5"/><text x="1123" y="568.779" fill="#000" font-family="sans-serif" font-size="14" lengthAdjust="spacing" textLength="229">Delete(reg.URN, last.ID, last.State)</text><rect style="stroke:#a80036;stroke-width:1.5" width="215" height="40" x="1050" y="670.488" fill="#FEFECE" filter="url(#f1ht2b1gslamyn)" rx="12.5" ry="12.5"/><text x="1055" y="695.779" fill="#000" font-family="sans-serif" font-size="14" lengthAdjust="spacing" textLength="205">Create(reg.URN, check.Inputs)</text><ellipse cx="878.5" cy="757.488" filter="url(#f1ht2b1gslamyn)" rx="10" ry="10" style="stroke:#000;stroke-width:1;fill:none"/><ellipse cx="879" cy="757.988" fill="#000" rx="6" ry="6" style="stroke:none;stroke-width:1"/><path id="manage_check-to-manage_create" fill="none" d="M795.02,181.6183 C790.65,187.0283 786.42,193.1883 783.5,199.4883 C770.37,227.8683 765.45,263.8883 763.6,287.3083" style="stroke:#a80036;stroke-width:1"/><polygon fill="#A80036" points="763.24 292.398 767.898 283.72 763.611 287.412 759.92 283.126 763.24 292.398" style="stroke:#a80036;stroke-width:1"/><text x="784.5" y="213.057" fill="#000" font-family="sans-serif" font-size="13" lengthAdjust="spacing" textLength="78">no last state</text><path id="manage_check-to-manage_diff" fill="none" d="M841.59,181.5683 C863.03,196.1283 892.61,216.2083 915.06,231.4583" style="stroke:#a80036;stroke-width:1"/><polygon fill="#A80036" points="919.45 234.438 914.233 226.084 915.307 231.638 909.754 232.713 919.45 234.438" style="stroke:#a80036;stroke-width:1"/><text x="893.5" y="213.057" fill="#000" font-family="sans-serif" font-size="13" lengthAdjust="spacing" textLength="84">has last state</text><path id="manage_diff-to-manage_update" fill="none" d="M923.37,274.5383 C918.28,279.7883 913.53,285.8783 910.5,292.4883 C894.09,328.2883 894.88,375.0683 897.38,403.1083" style="stroke:#a80036;stroke-width:1"/><polygon fill="#A80036" points="897.87 408.118 901.005 398.782 897.399 403.14 893.04 399.535 897.87 408.118" style="stroke:#a80036;stroke-width:1"/><text x="911.5" y="317.557" fill="#000" font-family="sans-serif" font-size="13" lengthAdjust="spacing" textLength="96">can be updated</text><path id="manage_diff-to-manage_replace_check" fill="none" d="M990.26,274.5983 C998.35,279.5883 1006.23,285.5483 1012.5,292.4883 C1026.08,307.5283 1034.92,328.8583 1040.18,345.2583" style="stroke:#a80036;stroke-width:1"/><polygon fill="#A80036" points="1041.69 350.178 1042.86 340.399 1040.217 345.4 1035.215 342.757 1041.69 350.178" style="stroke:#a80036;stroke-width:1"/><text x="1035.5" y="317.557" fill="#000" font-family="sans-serif" font-size="13" lengthAdjust="spacing" textLength="108">must be replaced</text><path id="manage_replace_check-to-manage_replace_create_before_delete" fill="none" d="M1043.99,390.5683 C1041.44,409.9683 1037.47,440.0983 1034.7,461.1883" style="stroke:#a80036;stroke-width:1"/><polygon fill="#A80036" points="1034.02 466.348 1039.168 457.952 1034.677 461.392 1031.237 456.901 1034.02 466.348" style="stroke:#a80036;stroke-width:1"/><text x="1041.5" y="433.557" fill="#000" font-family="sans-serif" font-size="13" lengthAdjust="spacing" textLength="124">create before delete</text><path id="manage_replace_check-to-manage_replace_delete_dependents" fill="none" d="M1135.31,390.5783 C1147.7,395.3183 1159.83,401.1983 1170.5,408.4883 C1190.45,422.1183 1206.79,444.4583 1217.36,461.5683" style="stroke:#a80036;stroke-width:1"/><polygon fill="#A80036" points="1220.18 466.248 1218.941 456.478 1217.591 461.971 1212.097 460.62 1220.18 466.248" style="stroke:#a80036;stroke-width:1"/><text x="1209.5" y="433.557" fill="#000" font-family="sans-serif" font-size="13" lengthAdjust="spacing" textLength="113">delete after craete</text><path id="manage_replace_create_before_delete-to-manage_replace_delete_after_create" fill="none" d="M1030.94,506.7483 C1030.28,529.8783 1029.15,568.9583 1028.36,596.0383" style="stroke:#a80036;stroke-width:1"/><polygon fill="#A80036" points="1028.21 601.288 1032.465 592.406 1028.353 596.29 1024.469 592.178 1028.21 601.288" style="stroke:#a80036;stroke-width:1"/><path id="manage_replace_delete_dependents-to-manage_replace_delete_before_create" fill="none" d="M1232.3,506.7983 C1233.19,516.3383 1234.28,527.9483 1235.22,538.0883" style="stroke:#a80036;stroke-width:1"/><polygon fill="#A80036" points="1235.7 543.238 1238.832 533.901 1235.228 538.261 1230.868 534.656 1235.7 543.238" style="stroke:#a80036;stroke-width:1"/><path id="manage_replace_delete_before_create-to-manage_replace_create_after_delete" fill="none" d="M1239.33,583.7683 C1240.14,602.8883 1238.58,632.1883 1224.5,652.4883 C1220.58,658.1483 1215.5,663.0283 1209.89,667.2183" style="stroke:#a80036;stroke-width:1"/><polygon fill="#A80036" points="1205.51 670.288 1215.177 668.402 1209.605 667.42 1210.587 661.849 1205.51 670.288" style="stroke:#a80036;stroke-width:1"/><path id="manage_create-to-*end*Manage" fill="none" d="M762.5,332.8483 C762.5,355.5283 762.5,394.2383 762.5,427.4883 C762.5,427.4883 762.5,427.4883 762.5,691.4883 C762.5,737.3183 832.25,751.1583 863.58,755.0583" style="stroke:#a80036;stroke-width:1"/><polygon fill="#A80036" points="868.61 755.638 860.126 750.637 863.643 755.067 859.212 758.584 868.61 755.638" style="stroke:#a80036;stroke-width:1"/><path id="manage_update-to-*end*Manage" fill="none" d="M868.26,448.5483 C844.58,465.2483 816.5,491.9083 816.5,524.4883 C816.5,524.4883 816.5,524.4883 816.5,691.4883 C816.5,719.2883 846.56,739.8883 864.81,749.8383" style="stroke:#a80036;stroke-width:1"/><polygon fill="#A80036" points="869.62 752.358 863.496 744.645 865.189 750.043 859.791 751.735 869.62 752.358" style="stroke:#a80036;stroke-width:1"/><path id="manage_replace_delete_after_create-to-*end*Manage" fill="none" d="M998.77,652.7683 C965.49,681.4583 912.32,727.3183 889.5,747.0083" style="stroke:#a80036;stroke-width:1"/><polygon fill="#A80036" points="885.6 750.368 895.025 747.51 889.383 747.099 889.794 741.457 885.6 750.368" style="stroke:#a80036;stroke-width:1"/><path id="manage_replace_create_after_delete-to-*end*Manage" fill="none" d="M1075.68,710.5483 C1011.27,725.5583 926.95,745.1983 893.3,753.0383" style="stroke:#a80036;stroke-width:1"/><polygon fill="#A80036" points="888.35 754.198 898.021 756.064 893.221 753.07 896.215 748.27 888.35 754.198" style="stroke:#a80036;stroke-width:1"/><path id="*start-to-Read" fill="none" d="M442.98,16.87 C416.9,17.05 345.92,20.93 303,56 C208.29,133.38 165.62,274.52 147.42,363.01" style="stroke:#a80036;stroke-width:1"/><polygon fill="#A80036" points="146.41 367.97 152.106 359.936 147.396 363.068 144.263 358.358 146.41 367.97" style="stroke:#a80036;stroke-width:1"/><text x="304" y="69.568" fill="#000" font-family="sans-serif" font-size="13" lengthAdjust="spacing" textLength="140">read existing resource</text><path id="*start-to-Import" fill="none" d="M453,26.27 C453,60.53 453,183.35 453,286.68" style="stroke:#a80036;stroke-width:1"/><polygon fill="#A80036" points="453 291.89 457 282.89 453 286.89 449 282.89 453 291.89" style="stroke:#a80036;stroke-width:1"/><text x="454" y="69.568" fill="#000" font-family="sans-serif" font-size="13" lengthAdjust="spacing" textLength="155">import existing resource</text><path id="*start-to-Manage" fill="none" d="M462.96,17.49 C489.72,19.19 564.71,26.46 618,56 C641.43,68.99 664.42,83.78 686.79,99.83" style="stroke:#a80036;stroke-width:1"/><polygon fill="#A80036" points="690.96 102.84 686.004 94.329 686.906 99.914 681.321 100.816 690.96 102.84" style="stroke:#a80036;stroke-width:1"/><text x="644" y="69.568" fill="#000" font-family="sans-serif" font-size="13" lengthAdjust="spacing" textLength="107">manage resource</text></g></svg>